Black.ufo
<glyph name="dollar" format="2">
  <advance width="1296"/>
  <unicode hex="0024"/>
  <anchor x="686" y="1400" name="top"/>
  <anchor x="662" y="0" name="bottom"/>
  <outline>
    <contour>
      <point x="672" y="-30" type="qcurve"/>
      <point x="520" y="-30"/>
      <point x="229" y="63"/>
      <point x="130" y="151" type="qcurve"/>
      <point x="282" y="394" type="line"/>
      <point x="325" y="347"/>
      <point x="456" y="279"/>
      <point x="604" y="242"/>
      <point x="672" y="242" type="qcurve"/>
      <point x="783" y="242"/>
      <point x="912" y="315"/>
      <point x="912" y="382" type="qcurve"/>
      <point x="912" y="448"/>
      <point x="810" y="529"/>
      <point x="682" y="558" type="qcurve"/>
      <point x="553" y="577" type="line"/>
      <point x="344" y="636"/>
      <point x="160" y="849"/>
      <point x="160" y="996" type="qcurve"/>
      <point x="160" y="1121"/>
      <point x="293" y="1316"/>
      <point x="525" y="1428"/>
      <point x="672" y="1428" type="qcurve"/>
      <point x="825" y="1428"/>
      <point x="1088" y="1337"/>
      <point x="1167" y="1258" type="qcurve"/>
      <point x="1010" y="1024" type="line"/>
      <point x="956" y="1083"/>
      <point x="774" y="1156"/>
      <point x="676" y="1156" type="qcurve"/>
      <point x="604" y="1156"/>
      <point x="504" y="1121"/>
      <point x="452" y="1056"/>
      <point x="452" y="1012" type="qcurve"/>
      <point x="452" y="945"/>
      <point x="543" y="871"/>
      <point x="679" y="839" type="qcurve"/>
      <point x="816" y="824" type="line"/>
      <point x="1010" y="770"/>
      <point x="1206" y="579"/>
      <point x="1206" y="418" type="qcurve"/>
      <point x="1206" y="285"/>
      <point x="1075" y="83"/>
      <point x="835" y="-30"/>
    </contour>
    <contour>
      <point x="554" y="-160" type="line"/>
      <point x="554" y="1560" type="line"/>
      <point x="816" y="1560" type="line"/>
      <point x="816" y="-160" type="line"/>
    </contour>
  </outline>
</glyph>
<glyph name="comma" format="2">
  <advance width="600"/>
  <unicode hex="002C"/>
  <outline>
    <contour>
      <point x="145" y="-396" type="qcurve"/>
      <point x="35" y="-238" type="line"/>
      <point x="131" y="-200"/>
      <point x="282" y="-77"/>
      <point x="320" y="-14" type="qcurve"/>
      <point x="251" y="-18"/>
      <point x="136" y="31"/>
      <point x="67" y="126"/>
      <point x="67" y="191" type="qcurve"/>
      <point x="67" y="293"/>
      <point x="195" y="416"/>
      <point x="295" y="416" type="qcurve"/>
      <point x="408" y="416"/>
      <point x="551" y="265"/>
      <point x="551" y="140" type="qcurve"/>
      <point x="551" y="42"/>
      <point x="463" y="-144"/>
      <point x="283" y="-317"/>
    </contour>
  </outline>
</glyph>
<glyph name="period" format="2">
  <advance width="600"/>
  <unicode hex="002E"/>
  <outline>
    <contour>
      <point x="300" y="-30" type="qcurve"/>
      <point x="206" y="-30"/>
      <point x="66" y="89"/>
      <point x="66" y="192" type="qcurve"/>
      <point x="66" y="262"/>
      <point x="130" y="362"/>
      <point x="237" y="416"/>
      <point x="300" y="416" type="qcurve"/>
      <point x="395" y="416"/>
      <point x="534" y="297"/>
      <point x="534" y="192" type="qcurve"/>
      <point x="534" y="123"/>
      <point x="469" y="23"/>
      <point x="363" y="-30"/>
    </contour>
  </outline>
</glyph>
<glyph name="one" format="2">
  <advance width="958"/>
  <unicode hex="0031"/>
  <outline>
    <contour>
      <point x="394" y="0" type="line"/>
      <point x="394" y="958" type="line"/>
      <point x="108" y="860" type="line"/>
      <point x="2" y="1176" type="line"/>
      <point x="637" y="1396" type="line"/>
      <point x="762" y="1400" type="line"/>
      <point x="762" y="0" type="line"/>
    </contour>
  </outline>
</glyph>
<glyph name="two" format="2">
  <advance width="1202"/>
  <unicode hex="0032"/>
  <outline>
    <contour>
      <point x="84" y="0" type="line"/>
      <point x="84" y="256" type="line"/>
      <point x="378" y="516" type="line"/>
      <point x="512" y="635"/>
      <point x="655" y="782"/>
      <point x="708" y="885"/>
      <point x="708" y="938" type="qcurve"/>
      <point x="708" y="1016"/>
      <point x="608" y="1096"/>
      <point x="512" y="1096" type="qcurve"/>
      <point x="421" y="1096"/>
      <point x="255" y="1019"/>
      <point x="184" y="944" type="qcurve"/>
      <point x="50" y="1236" type="line"/>
      <point x="152" y="1328"/>
      <point x="417" y="1430"/>
      <point x="550" y="1430" type="qcurve"/>
      <point x="713" y="1430"/>
      <point x="950" y="1319"/>
      <point x="1078" y="1121"/>
      <point x="1078" y="992" type="qcurve"/>
      <point x="1078" y="907"/>
      <point x="1011" y="748"/>
      <point x="844" y="551"/>
      <point x="694" y="408" type="qcurve"/>
      <point x="608" y="326" type="line"/>
      <point x="1116" y="326" type="line"/>
      <point x="1116" y="0" type="line"/>
    </contour>
  </outline>
</glyph>
<glyph name="three" format="2">
  <advance width="1176"/>
  <unicode hex="0033"/>
  <outline>
    <contour>
      <point x="532" y="-30" type="qcurve"/>
      <point x="435" y="-30"/>
      <point x="249" y="14"/>
      <point x="100" y="89"/>
      <point x="60" y="136" type="qcurve"/>
      <point x="176" y="450" type="line"/>
      <point x="227" y="383"/>
      <point x="409" y="304"/>
      <point x="506" y="304" type="qcurve"/>
      <point x="565" y="304"/>
      <point x="655" y="341"/>
      <point x="706" y="407"/>
      <point x="706" y="450" type="qcurve"/>
      <point x="706" y="522"/>
      <point x="601" y="600"/>
      <point x="520" y="600" type="qcurve"/>
      <point x="483" y="600"/>
      <point x="400" y="588"/>
      <point x="358" y="576" type="qcurve"/>
      <point x="254" y="824" type="line"/>
      <point x="572" y="1078" type="line"/>
      <point x="80" y="1078" type="line"/>
      <point x="80" y="1400" type="line"/>
      <point x="1016" y="1400" type="line"/>
      <point x="1016" y="1104" type="line"/>
      <point x="732" y="828" type="line"/>
      <point x="816" y="816"/>
      <point x="974" y="716"/>
      <point x="1076" y="542"/>
      <point x="1076" y="418" type="qcurve"/>
      <point x="1076" y="289"/>
      <point x="937" y="87"/>
      <point x="692" y="-30"/>
    </contour>
  </outline>
</glyph>
<glyph name="six" format="2">
  <advance width="1304"/>
  <unicode hex="0036"/>
  <outline>
    <contour>
      <point x="662" y="-30" type="qcurve"/>
      <point x="493" y="-30"/>
      <point x="236" y="121"/>
      <point x="90" y="409"/>
      <point x="90" y="612" type="qcurve"/>
      <point x="90" y="780"/>
      <point x="208" y="1094"/>
      <point x="451" y="1334"/>
      <point x="826" y="1450"/>
      <point x="1084" y="1419" type="qcurve"/>
      <point x="1084" y="1093" type="line"/>
      <point x="959" y="1107"/>
      <point x="749" y="1085"/>
      <point x="589" y="1018"/>
      <point x="487" y="907"/>
      <point x="470" y="833" type="qcurve"/>
      <point x="525" y="876"/>
      <point x="667" y="924"/>
      <point x="762" y="924" type="qcurve"/>
      <point x="903" y="924"/>
      <point x="1107" y="805"/>
      <point x="1216" y="596"/>
      <point x="1216" y="462" type="qcurve"/>
      <point x="1216" y="362"/>
      <point x="1141" y="185"/>
      <point x="997" y="48"/>
      <point x="792" y="-30"/>
    </contour>
    <contour>
      <point x="662" y="286" type="qcurve"/>
      <point x="715" y="286"/>
      <point x="798" y="329"/>
      <point x="846" y="404"/>
      <point x="846" y="452" type="qcurve"/>
      <point x="846" y="500"/>
      <point x="798" y="575"/>
      <point x="715" y="618"/>
      <point x="662" y="618" type="qcurve"/>
      <point x="609" y="618"/>
      <point x="526" y="575"/>
      <point x="478" y="500"/>
      <point x="478" y="452" type="qcurve"/>
      <point x="478" y="404"/>
      <point x="526" y="329"/>
      <point x="609" y="286"/>
    </contour>
  </outline>
</glyph>
<glyph name="nine" format="2">
  <advance width="1280"/>
  <unicode hex="0039"/>
  <outline>
    <contour>
      <point x="206" y="-19" type="qcurve"/>
      <point x="206" y="307" type="line"/>
      <point x="329" y="291"/>
      <point x="536" y="315"/>
      <point x="694" y="389"/>
      <point x="794" y="510"/>
      <point x="810" y="591" type="qcurve"/>
      <point x="758" y="548"/>
      <point x="622" y="500"/>
      <point x="530" y="500" type="qcurve"/>
      <point x="393" y="500"/>
      <point x="194" y="619"/>
      <point x="88" y="828"/>
      <point x="88" y="962" type="qcurve"/>
      <point x="88" y="1089"/>
      <point x="218" y="1302"/>
      <point x="461" y="1430"/>
      <point x="630" y="1430" type="qcurve"/>
      <point x="795" y="1430"/>
      <point x="1048" y="1283"/>
      <point x="1190" y="1006"/>
      <point x="1190" y="812" type="qcurve"/>
      <point x="1190" y="640"/>
      <point x="1073" y="316"/>
      <point x="833" y="69"/>
      <point x="461" y="-51"/>
    </contour>
    <contour>
      <point x="630" y="806" type="qcurve"/>
      <point x="680" y="806"/>
      <point x="757" y="846"/>
      <point x="802" y="916"/>
      <point x="802" y="960" type="qcurve"/>
      <point x="802" y="1005"/>
      <point x="757" y="1075"/>
      <point x="680" y="1114"/>
      <point x="630" y="1114" type="qcurve"/>
      <point x="581" y="1114"/>
      <point x="503" y="1075"/>
      <point x="458" y="1005"/>
      <point x="458" y="960" type="qcurve"/>
      <point x="458" y="916"/>
      <point x="503" y="846"/>
      <point x="581" y="806"/>
    </contour>
  </outline>
</glyph>
<glyph name="at" format="2">
  <advance width="1688"/>
  <unicode hex="0040"/>
  <outline>
    <contour>
      <point x="856" y="-234" type="qcurve"/>
      <point x="624" y="-234"/>
      <point x="270" y="-51"/>
      <point x="70" y="273"/>
      <point x="70" y="486" type="qcurve"/>
      <point x="70" y="649"/>
      <point x="190" y="925"/>
      <point x="407" y="1129"/>
      <point x="701" y="1242"/>
      <point x="874" y="1242" type="qcurve"/>
      <point x="1094" y="1242"/>
      <point x="1429" y="1073"/>
      <point x="1618" y="773"/>
      <point x="1618" y="576" type="qcurve"/>
      <point x="1618" y="460"/>
      <point x="1517" y="268"/>
      <point x="1347" y="154"/>
      <point x="1244" y="154" type="qcurve"/>
      <point x="1166" y="154"/>
      <point x="1051" y="210"/>
      <point x="1018" y="262" type="qcurve"/>
      <point x="963" y="205"/>
      <point x="848" y="154"/>
      <point x="774" y="154" type="qcurve"/>
      <point x="675" y="154"/>
      <point x="525" y="240"/>
      <point x="440" y="392"/>
      <point x="440" y="492" type="qcurve"/>
      <point x="440" y="600"/>
      <point x="533" y="769"/>
      <point x="697" y="866"/>
      <point x="802" y="866" type="qcurve"/>
      <point x="917" y="866"/>
      <point x="1012" y="788" type="qcurve"/>
      <point x="1014" y="840" type="line"/>
      <point x="1200" y="840" type="line"/>
      <point x="1178" y="450" type="line"/>
      <point x="1175" y="399"/>
      <point x="1219" y="346"/>
      <point x="1264" y="346" type="qcurve"/>
      <point x="1311" y="346"/>
      <point x="1376" y="399"/>
      <point x="1410" y="502"/>
      <point x="1410" y="576" type="qcurve"/>
      <point x="1410" y="718"/>
      <point x="1273" y="933"/>
      <point x="1029" y="1054"/>
      <point x="868" y="1054" type="qcurve"/>
      <point x="741" y="1054"/>
      <point x="526" y="968"/>
      <point x="366" y="813"/>
      <point x="278" y="604"/>
      <point x="278" y="480" type="qcurve"/>
      <point x="278" y="325"/>
      <point x="422" y="91"/>
      <point x="681" y="-40"/>
      <point x="852" y="-40" type="qcurve"/>
      <point x="942" y="-40"/>
      <point x="1113" y="-4"/>
      <point x="1269" y="65"/>
      <point x="1338" y="116" type="qcurve"/>
      <point x="1418" y="-64" type="line"/>
      <point x="1338" y="-119"/>
      <point x="1155" y="-195"/>
      <point x="958" y="-234"/>
    </contour>
    <contour>
      <point x="800" y="366" type="qcurve"/>
      <point x="865" y="366"/>
      <point x="942" y="453"/>
      <point x="942" y="528" type="qcurve"/>
      <point x="942" y="587"/>
      <point x="882" y="652"/>
      <point x="828" y="652" type="qcurve"/>
      <point x="765" y="652"/>
      <point x="688" y="564"/>
      <point x="688" y="490" type="qcurve"/>
      <point x="688" y="432"/>
      <point x="748" y="366"/>
    </contour>
  </outline>
</glyph>
<glyph name="B" format="2">
  <advance width="1354"/>
  <unicode hex="0042"/>
  <outline>
    <contour>
      <point x="156" y="0" type="line"/>
      <point x="156" y="1400" type="line"/>
      <point x="740" y="1400" type="line"/>
      <point x="962" y="1400"/>
      <point x="1224" y="1221"/>
      <point x="1224" y="1044" type="qcurve"/>
      <point x="1224" y="982"/>
      <point x="1178" y="881"/>
      <point x="1096" y="802"/>
      <point x="1042" y="774" type="qcurve"/>
      <point x="1153" y="732"/>
      <point x="1284" y="545"/>
      <point x="1284" y="422" type="qcurve"/>
      <point x="1284" y="291"/>
      <point x="1153" y="102"/>
      <point x="912" y="0"/>
      <point x="746" y="0" type="qcurve"/>
    </contour>
    <contour>
      <point x="560" y="290" type="line"/>
      <point x="692" y="290" type="line"/>
      <point x="776" y="290"/>
      <point x="862" y="363"/>
      <point x="862" y="432" type="qcurve"/>
      <point x="862" y="498"/>
      <point x="784" y="574"/>
      <point x="712" y="574" type="qcurve"/>
      <point x="560" y="574" type="line"/>
    </contour>
    <contour>
      <point x="560" y="842" type="line"/>
      <point x="688" y="842" type="line"/>
      <point x="734" y="842"/>
      <point x="799" y="874"/>
      <point x="834" y="935"/>
      <point x="834" y="978" type="qcurve"/>
      <point x="834" y="1041"/>
      <point x="756" y="1110"/>
      <point x="682" y="1110" type="qcurve"/>
      <point x="560" y="1110" type="line"/>
    </contour>
  </outline>
</glyph>
<glyph name="C" format="2">
  <advance width="1406"/>
  <unicode hex="0043"/>
  <anchor x="772" y="1400" name="top"/>
  <anchor x="772" y="0" name="bottom"/>
  <outline>
    <contour>
      <point x="812" y="-30" type="qcurve"/>
      <point x="594" y="-30"/>
      <point x="259" y="146"/>
      <point x="70" y="471"/>
      <point x="70" y="694" type="qcurve"/>
      <point x="70" y="857"/>
      <point x="180" y="1127"/>
      <point x="381" y="1323"/>
      <point x="655" y="1430"/>
      <point x="818" y="1430" type="qcurve"/>
      <point x="1004" y="1430"/>
      <point x="1244" y="1336"/>
      <point x="1346" y="1250" type="qcurve"/>
      <point x="1148" y="918" type="line"/>
      <point x="1094" y="977"/>
      <point x="939" y="1036"/>
      <point x="844" y="1036" type="qcurve"/>
      <point x="759" y="1036"/>
      <point x="629" y="989"/>
      <point x="540" y="901"/>
      <point x="494" y="777"/>
      <point x="494" y="700" type="qcurve"/>
      <point x="494" y="595"/>
      <point x="578" y="445"/>
      <point x="736" y="364"/>
      <point x="848" y="364" type="qcurve"/>
      <point x="934" y="364"/>
      <point x="1111" y="418"/>
      <point x="1192" y="476" type="qcurve"/>
      <point x="1376" y="138" type="line"/>
      <point x="1282" y="66"/>
      <point x="1004" y="-30"/>
    </contour>
  </outline>
</glyph>
<glyph name="Q" format="2">
  <advance width="1648"/>
  <unicode hex="0051"/>
  <outline>
    <component base="O"/>
    <contour>
      <point x="1616" y="-144" type="line"/>
      <point x="987" y="620" type="line"/>
      <point x="622" y="620" type="line"/>
      <point x="1208" y="-144" type="line"/>
    </contour>
  </outline>
</glyph>
<glyph name="T" format="2">
  <advance width="1186"/>
  <unicode hex="0054"/>
  <anchor x="592" y="1400" name="top"/>
  <anchor x="592" y="0" name="bottom"/>
  <anchor x="594" y="644" name="strokeshort"/>
  <outline>
    <contour>
      <point x="390" y="0" type="line"/>
      <point x="390" y="1032" type="line"/>
      <point x="30" y="1032" type="line"/>
      <point x="30" y="1400" type="line"/>
      <point x="1156" y="1400" type="line"/>
      <point x="1156" y="1032" type="line"/>
      <point x="796" y="1032" type="line"/>
      <point x="796" y="0" type="line"/>
    </contour>
  </outline>
</glyph>
<glyph name="X" format="2">
  <advance width="1424"/>
  <unicode hex="0058"/>
  <outline>
    <contour>
      <point x="14" y="0" type="line"/>
      <point x="434" y="710" type="line"/>
      <point x="28" y="1400" type="line"/>
      <point x="516" y="1400" type="line"/>
      <point x="722" y="1020" type="line"/>
      <point x="928" y="1400" type="line"/>
      <point x="1404" y="1400" type="line"/>
      <point x="998" y="704" type="line"/>
      <point x="1410" y="0" type="line"/>
      <point x="918" y="0" type="line"/>
      <point x="706" y="402" type="line"/>
      <point x="494" y="0" type="line"/>
    </contour>
  </outline>
</glyph>
<glyph name="a" format="2">
  <advance width="1203"/>
  <unicode hex="0061"/>
  <anchor x="570" y="1040" name="top"/>
  <anchor x="570" y="0" name="bottom"/>
  <outline>
    <contour>
      <point x="422" y="-30" type="qcurve"/>
      <point x="322" y="-30"/>
      <point x="156" y="50"/>
      <point x="56" y="201"/>
      <point x="56" y="308" type="qcurve"/>
      <point x="56" y="401"/>
      <point x="147" y="541"/>
      <point x="325" y="630"/>
      <point x="588" y="662"/>
      <point x="760" y="648" type="qcurve"/>
      <point x="762" y="410" type="line"/>
      <point x="694" y="425"/>
      <point x="570" y="432"/>
      <point x="474" y="414"/>
      <point x="418" y="369"/>
      <point x="418" y="331" type="qcurve"/>
      <point x="418" y="290"/>
      <point x="484" y="250"/>
      <point x="537" y="250" type="qcurve"/>
      <point x="585" y="250"/>
      <point x="662" y="282"/>
      <point x="708" y="349"/>
      <point x="708" y="402" type="qcurve"/>
      <point x="708" y="614" type="line"/>
      <point x="708" y="662"/>
      <point x="670" y="737"/>
      <point x="580" y="780"/>
      <point x="500" y="780" type="qcurve"/>
      <point x="420" y="780"/>
      <point x="263" y="732"/>
      <point x="204" y="688" type="qcurve"/>
      <point x="106" y="954" type="line"/>
      <point x="210" y="1017"/>
      <point x="452" y="1080"/>
      <point x="570" y="1080" type="qcurve"/>
      <point x="719" y="1080"/>
      <point x="953" y="985"/>
      <point x="1088" y="782"/>
      <point x="1088" y="620" type="qcurve"/>
      <point x="1088" y="0" type="line"/>
      <point x="748" y="0" type="line"/>
      <point x="748" y="102" type="line"/>
      <point x="700" y="39"/>
      <point x="532" y="-30"/>
    </contour>
  </outline>
</glyph>
<glyph name="b" format="2">
  <advance width="1364"/>
  <unicode hex="0062"/>
  <outline>
    <contour>
      <point x="800" y="-30" type="qcurve"/>
      <point x="707" y="-30"/>
      <point x="550" y="25"/>
      <point x="439" y="125"/>
      <point x="414" y="192" type="qcurve"/>
      <point x="468" y="282" type="line"/>
      <point x="468" y="0" type="line"/>
      <point x="128" y="0" type="line"/>
      <point x="128" y="1440" type="line"/>
      <point x="526" y="1440" type="line"/>
      <point x="526" y="808" type="line"/>
      <point x="434" y="900" type="line"/>
      <point x="506" y="989"/>
      <point x="687" y="1070"/>
      <point x="792" y="1070" type="qcurve"/>
      <point x="944" y="1070"/>
      <point x="1180" y="926"/>
      <point x="1314" y="677"/>
      <point x="1314" y="520" type="qcurve"/>
      <point x="1314" y="393"/>
      <point x="1236" y="189"/>
      <point x="1097" y="46"/>
      <point x="910" y="-30"/>
    </contour>
    <contour>
      <point x="726" y="310" type="qcurve"/>
      <point x="782" y="310"/>
      <point x="873" y="361"/>
      <point x="926" y="455"/>
      <point x="926" y="520" type="qcurve"/>
      <point x="926" y="585"/>
      <point x="874" y="679"/>
      <point x="783" y="730"/>
      <point x="726" y="730" type="qcurve"/>
      <point x="669" y="730"/>
      <point x="578" y="679"/>
      <point x="526" y="585"/>
      <point x="526" y="520" type="qcurve"/>
      <point x="526" y="455"/>
      <point x="579" y="361"/>
      <point x="670" y="310"/>
    </contour>
  </outline>
</glyph>
<glyph name="c" format="2">
  <advance width="1105"/>
  <unicode hex="0063"/>
  <anchor x="604" y="1040" name="top"/>
  <anchor x="592" y="0" name="bottom"/>
  <outline>
    <contour>
      <point x="632" y="-30" type="qcurve"/>
      <point x="466" y="-30"/>
      <point x="203" y="114"/>
      <point x="50" y="363"/>
      <point x="50" y="520" type="qcurve"/>
      <point x="50" y="637"/>
      <point x="140" y="837"/>
      <point x="302" y="987"/>
      <point x="518" y="1070"/>
      <point x="644" y="1070" type="qcurve"/>
      <point x="769" y="1070"/>
      <point x="985" y="1000"/>
      <point x="1070" y="932" type="qcurve"/>
      <point x="900" y="638" type="line"/>
      <point x="849" y="686"/>
      <point x="734" y="730"/>
      <point x="672" y="730" type="qcurve"/>
      <point x="600" y="730"/>
      <point x="498" y="681"/>
      <point x="444" y="587"/>
      <point x="444" y="520" type="qcurve"/>
      <point x="444" y="421"/>
      <point x="566" y="310"/>
      <point x="674" y="310" type="qcurve"/>
      <point x="743" y="310"/>
      <point x="868" y="362"/>
      <point x="926" y="416" type="qcurve"/>
      <point x="1078" y="114" type="line"/>
      <point x="988" y="47"/>
      <point x="749" y="-30"/>
    </contour>
  </outline>
</glyph>
<glyph name="d" format="2">
  <advance width="1364"/>
  <unicode hex="0064"/>
  <anchor x="1236" y="1440" name="Anchor_2"/>
  <anchor x="998" y="1224" name="strokeshort"/>
  <outline>
    <contour>
      <point x="564" y="-30" type="qcurve"/>
      <point x="418" y="-30"/>
      <point x="185" y="103"/>
      <point x="50" y="350"/>
      <point x="50" y="520" type="qcurve"/>
      <point x="50" y="638"/>
      <point x="127" y="838"/>
      <point x="267" y="987"/>
      <point x="458" y="1070"/>
      <point x="572" y="1070" type="qcurve"/>
      <point x="677" y="1070"/>
      <point x="858" y="989"/>
      <point x="930" y="900" type="qcurve"/>
      <point x="836" y="808" type="line"/>
      <point x="836" y="1440" type="line"/>
      <point x="1236" y="1440" type="line"/>
      <point x="1236" y="0" type="line"/>
      <point x="896" y="0" type="line"/>
      <point x="896" y="282" type="line"/>
      <point x="950" y="192" type="line"/>
      <point x="913" y="92"/>
      <point x="704" y="-30"/>
    </contour>
    <contour>
      <point x="638" y="310" type="qcurve"/>
      <point x="694" y="310"/>
      <point x="785" y="361"/>
      <point x="838" y="455"/>
      <point x="838" y="520" type="qcurve"/>
      <point x="838" y="585"/>
      <point x="786" y="679"/>
      <point x="695" y="730"/>
      <point x="638" y="730" type="qcurve"/>
      <point x="581" y="730"/>
      <point x="490" y="679"/>
      <point x="438" y="585"/>
      <point x="438" y="520" type="qcurve"/>
      <point x="438" y="455"/>
      <point x="491" y="361"/>
      <point x="582" y="310"/>
    </contour>
  </outline>
</glyph>
<glyph name="l" format="2">
  <advance width="769"/>
  <unicode hex="006C"/>
  <anchor x="328" y="1440" name="top"/>
  <anchor x="528" y="1440" name="Anchor_2"/>
  <anchor x="328" y="0" name="bottom"/>
  <outline>
    <contour>
      <point x="512" y="-28" type="qcurve" smooth="yes"/>
      <point x="396" y="-28"/>
      <point x="223" y="59"/>
      <point x="128" y="241"/>
      <point x="128" y="384" type="qcurve" smooth="yes"/>
      <point x="128" y="1440" type="line"/>
      <point x="528" y="1440" type="line"/>
      <point x="528" y="426" type="line" smooth="yes"/>
      <point x="528" y="360"/>
      <point x="576" y="306"/>
      <point x="618" y="306" type="qcurve" smooth="yes"/>
      <point x="636" y="306"/>
      <point x="678" y="315"/>
      <point x="700" y="322" type="qcurve"/>
      <point x="748" y="8" type="line"/>
      <point x="684" y="-10"/>
      <point x="566" y="-28"/>
    </contour>
  </outline>
</glyph>
<glyph name="n" format="2">
  <advance width="1366"/>
  <unicode hex="006E"/>
  <anchor x="690" y="1040" name="top"/>
  <anchor x="688" y="0" name="bottom"/>
  <outline>
    <contour>
      <point x="128" y="0" type="line"/>
      <point x="128" y="1040" type="line"/>
      <point x="528" y="1040" type="line"/>
      <point x="528" y="944" type="line"/>
      <point x="582" y="1009"/>
      <point x="731" y="1070"/>
      <point x="816" y="1070" type="qcurve"/>
      <point x="966" y="1070"/>
      <point x="1157" y="954"/>
      <point x="1248" y="768"/>
      <point x="1248" y="662" type="qcurve"/>
      <point x="1248" y="0" type="line"/>
      <point x="848" y="0" type="line"/>
      <point x="848" y="536" type="line"/>
      <point x="848" y="619"/>
      <point x="771" y="710"/>
      <point x="690" y="710" type="qcurve"/>
      <point x="638" y="710"/>
      <point x="566" y="666"/>
      <point x="528" y="587"/>
      <point x="528" y="536" type="qcurve"/>
      <point x="528" y="0" type="line"/>
    </contour>
  </outline>
</glyph>
<glyph name="o" format="2">
  <advance width="1276"/>
  <unicode hex="006F"/>
  <anchor x="638" y="1040" name="top"/>
  <anchor x="1038" y="1040" name="horn"/>
  <anchor x="638" y="0" name="bottom"/>
  <outline>
    <contour>
      <point x="638" y="-30" type="qcurve"/>
      <point x="464" y="-30"/>
      <point x="199" y="120"/>
      <point x="50" y="370"/>
      <point x="50" y="520" type="qcurve"/>
      <point x="50" y="628"/>
      <point x="135" y="826"/>
      <point x="292" y="980"/>
      <point x="508" y="1070"/>
      <point x="638" y="1070" type="qcurve"/>
      <point x="812" y="1070"/>
      <point x="1077" y="920"/>
      <point x="1226" y="670"/>
      <point x="1226" y="520" type="qcurve"/>
      <point x="1226" y="412"/>
      <point x="1141" y="214"/>
      <point x="984" y="60"/>
      <point x="769" y="-30"/>
    </contour>
    <contour>
      <point x="638" y="310" type="qcurve"/>
      <point x="694" y="310"/>
      <point x="785" y="361"/>
      <point x="838" y="455"/>
      <point x="838" y="520" type="qcurve"/>
      <point x="838" y="585"/>
      <point x="786" y="679"/>
      <point x="695" y="730"/>
      <point x="638" y="730" type="qcurve"/>
      <point x="581" y="730"/>
      <point x="490" y="679"/>
      <point x="438" y="585"/>
      <point x="438" y="520" type="qcurve"/>
      <point x="438" y="455"/>
      <point x="491" y="361"/>
      <point x="582" y="310"/>
    </contour>
  </outline>
</glyph>
<glyph name="s" format="2">
  <advance width="1088"/>
  <unicode hex="0073"/>
  <anchor x="550" y="1040" name="top"/>
  <anchor x="544" y="0" name="bottom"/>
  <outline>
    <contour>
      <point x="544" y="-28" type="qcurve"/>
      <point x="389" y="-28"/>
      <point x="140" y="43"/>
      <point x="46" y="110" type="qcurve"/>
      <point x="162" y="378" type="line"/>
      <point x="254" y="326"/>
      <point x="455" y="264"/>
      <point x="540" y="264" type="qcurve"/>
      <point x="605" y="264"/>
      <point x="670" y="291"/>
      <point x="670" y="318" type="qcurve"/>
      <point x="670" y="341"/>
      <point x="608" y="360"/>
      <point x="512" y="374" type="qcurve"/>
      <point x="293" y="406"/>
      <point x="88" y="578"/>
      <point x="88" y="728" type="qcurve"/>
      <point x="88" y="835"/>
      <point x="206" y="993"/>
      <point x="414" y="1080"/>
      <point x="550" y="1080" type="qcurve"/>
      <point x="682" y="1080"/>
      <point x="920" y="1011"/>
      <point x="1004" y="952" type="qcurve"/>
      <point x="892" y="684" type="line"/>
      <point x="847" y="715"/>
      <point x="735" y="762"/>
      <point x="617" y="788"/>
      <point x="564" y="788" type="qcurve"/>
      <point x="507" y="788"/>
      <point x="440" y="763"/>
      <point x="440" y="740" type="qcurve"/>
      <point x="440" y="718"/>
      <point x="493" y="696"/>
      <point x="592" y="676" type="qcurve"/>
      <point x="826" y="630"/>
      <point x="1020" y="475"/>
      <point x="1020" y="334" type="qcurve"/>
      <point x="1020" y="225"/>
      <point x="899" y="62"/>
      <point x="685" y="-28"/>
    </contour>
  </outline>
</glyph>
<glyph name="t" format="2">
  <advance width="930"/>
  <unicode hex="0074"/>
  <anchor x="604" y="1440" name="Anchor_2"/>
  <anchor x="558" y="0" name="bottom"/>
  <anchor x="420" y="534" name="strokeshort"/>
  <outline>
    <contour>
      <point x="598" y="-30" type="qcurve"/>
      <point x="412" y="-30"/>
      <point x="204" y="177"/>
      <point x="204" y="378" type="qcurve"/>
      <point x="204" y="1334" type="line"/>
      <point x="604" y="1334" type="line"/>
      <point x="604" y="1040" type="line"/>
      <point x="820" y="1040" type="line"/>
      <point x="820" y="728" type="line"/>
      <point x="604" y="728" type="line"/>
      <point x="604" y="440" type="line"/>
      <point x="604" y="374"/>
      <point x="672" y="320"/>
      <point x="718" y="320" type="qcurve"/>
      <point x="747" y="320"/>
      <point x="807" y="335"/>
      <point x="834" y="350" type="qcurve"/>
      <point x="878" y="40" type="line"/>
      <point x="829" y="12"/>
      <point x="682" y="-30"/>
    </contour>
    <contour>
      <point x="20" y="728" type="line"/>
      <point x="20" y="1040" type="line"/>
      <point x="236" y="1040" type="line"/>
      <point x="236" y="728" type="line"/>
    </contour>
  </outline>
</glyph>
<glyph name="braceleft" format="2">
  <advance width="732"/>
  <unicode hex="007B"/>
  <outline>
    <contour>
      <point x="666" y="-226" type="line"/>
      <point x="389" y="-247"/>
      <point x="154" y="-45"/>
      <point x="196" y="190" type="qcurve"/>
      <point x="240" y="434" type="line"/>
      <point x="248" y="480"/>
      <point x="222" y="534"/>
      <point x="141" y="558"/>
      <point x="66" y="558" type="qcurve"/>
      <point x="66" y="824" type="line"/>
      <point x="141" y="824"/>
      <point x="222" y="848"/>
      <point x="248" y="902"/>
      <point x="240" y="948" type="qcurve"/>
      <point x="196" y="1188" type="line"/>
      <point x="153" y="1425"/>
      <point x="389" y="1627"/>
      <point x="666" y="1606" type="qcurve"/>
      <point x="666" y="1340" type="line"/>
      <point x="573" y="1346"/>
      <point x="500" y="1287"/>
      <point x="512" y="1216" type="qcurve"/>
      <point x="562" y="938" type="line"/>
      <point x="580" y="841"/>
      <point x="492" y="709"/>
      <point x="394" y="692" type="qcurve"/>
      <point x="394" y="690" type="line"/>
      <point x="496" y="671"/>
      <point x="584" y="538"/>
      <point x="566" y="442" type="qcurve"/>
      <point x="512" y="164" type="line"/>
      <point x="499" y="97"/>
      <point x="573" y="36"/>
      <point x="666" y="40" type="qcurve"/>
    </contour>
  </outline>
</glyph>
<glyph name="braceright" format="2">
  <advance width="732"/>
  <unicode hex="007D"/>
  <outline>
    <contour>
      <point x="66" y="-226" type="qcurve"/>
      <point x="66" y="40" type="line"/>
      <point x="159" y="36"/>
      <point x="234" y="97"/>
      <point x="220" y="164" type="qcurve"/>
      <point x="166" y="442" type="line"/>
      <point x="148" y="538"/>
      <point x="236" y="671"/>
      <point x="338" y="690" type="qcurve"/>
      <point x="338" y="692" type="line"/>
      <point x="241" y="709"/>
      <point x="152" y="841"/>
      <point x="170" y="938" type="qcurve"/>
      <point x="220" y="1216" type="line"/>
      <point x="232" y="1287"/>
      <point x="159" y="1346"/>
      <point x="66" y="1340" type="qcurve"/>
      <point x="66" y="1606" type="line"/>
      <point x="344" y="1627"/>
      <point x="580" y="1425"/>
      <point x="536" y="1188" type="qcurve"/>
      <point x="492" y="948" type="line"/>
      <point x="484" y="902"/>
      <point x="510" y="848"/>
      <point x="591" y="824"/>
      <point x="666" y="824" type="qcurve"/>
      <point x="666" y="558" type="line"/>
      <point x="591" y="558"/>
      <point x="510" y="534"/>
      <point x="484" y="480"/>
      <point x="492" y="434" type="qcurve"/>
      <point x="536" y="190" type="line"/>
      <point x="578" y="-45"/>
      <point x="344" y="-247"/>
    </contour>
  </outline>
</glyph>
<glyph name="exclamdown" format="2">
  <advance width="720"/>
  <unicode hex="00A1"/>
  <outline>
    <contour>
      <point x="130" y="-360" type="line"/>
      <point x="190" y="504" type="line"/>
      <point x="530" y="504" type="line"/>
      <point x="590" y="-360" type="line"/>
    </contour>
    <contour>
      <point x="360" y="624" type="qcurve"/>
      <point x="266" y="624"/>
      <point x="126" y="743"/>
      <point x="126" y="848" type="qcurve"/>
      <point x="126" y="917"/>
      <point x="190" y="1016"/>
      <point x="297" y="1070"/>
      <point x="360" y="1070" type="qcurve"/>
      <point x="455" y="1070"/>
      <point x="594" y="952"/>
      <point x="594" y="848" type="qcurve"/>
      <point x="594" y="778"/>
      <point x="530" y="678"/>
      <point x="423" y="624"/>
    </contour>
  </outline>
</glyph>
<glyph name="guillemotleft" format="2">
  <advance width="1230"/>
  <unicode hex="00AB"/>
  <outline>
    <contour>
      <point x="843" y="59" type="line"/>
      <point x="560" y="528" type="line"/>
      <point x="843" y="998" type="line"/>
      <point x="1112" y="837" type="line"/>
      <point x="928" y="528" type="line"/>
      <point x="1111" y="221" type="line"/>
    </contour>
    <contour>
      <point x="323" y="59" type="line"/>
      <point x="40" y="528" type="line"/>
      <point x="323" y="998" type="line"/>
      <point x="592" y="837" type="line"/>
      <point x="408" y="528" type="line"/>
      <point x="591" y="221" type="line"/>
    </contour>
  </outline>
</glyph>
<glyph name="registered" format="2">
  <advance width="1212"/>
  <unicode hex="00AE"/>
  <anchor x="614" y="1092" name="top"/>
  <anchor x="624" y="870" name="bottom"/>
  <outline>
    <contour>
      <point x="606" y="470" type="qcurve"/>
      <point x="458" y="470"/>
      <point x="221" y="605"/>
      <point x="82" y="837"/>
      <point x="82" y="982" type="qcurve"/>
      <point x="82" y="1127"/>
      <point x="221" y="1358"/>
      <point x="458" y="1492"/>
      <point x="606" y="1492" type="qcurve"/>
      <point x="753" y="1492"/>
      <point x="991" y="1355"/>
      <point x="1130" y="1124"/>
      <point x="1130" y="982" type="qcurve"/>
      <point x="1130" y="837"/>
      <point x="991" y="605"/>
      <point x="753" y="470"/>
    </contour>
    <contour>
      <point x="606" y="566" type="qcurve"/>
      <point x="720" y="566"/>
      <point x="909" y="670"/>
      <point x="1022" y="857"/>
      <point x="1022" y="982" type="qcurve"/>
      <point x="1022" y="1106"/>
      <point x="908" y="1291"/>
      <point x="719" y="1394"/>
      <point x="606" y="1394" type="qcurve"/>
      <point x="493" y="1394"/>
      <point x="304" y="1291"/>
      <point x="190" y="1106"/>
      <point x="190" y="982" type="qcurve"/>
      <point x="190" y="857"/>
      <point x="303" y="670"/>
      <point x="492" y="566"/>
    </contour>
    <contour>
      <point x="410" y="706" type="line"/>
      <point x="410" y="1256" type="line"/>
      <point x="638" y="1256" type="line"/>
      <point x="731" y="1256"/>
      <point x="846" y="1168"/>
      <point x="846" y="1088" type="qcurve"/>
      <point x="846" y="1028"/>
      <point x="772" y="951"/>
      <point x="716" y="936" type="qcurve"/>
      <point x="876" y="706" type="line"/>
      <point x="730" y="706" type="line"/>
      <point x="592" y="912" type="line"/>
      <point x="532" y="912" type="line"/>
      <point x="532" y="706" type="line"/>
    </contour>
    <contour>
      <point x="532" y="1010" type="line"/>
      <point x="622" y="1010" type="line"/>
      <point x="669" y="1010"/>
      <point x="722" y="1046"/>
      <point x="722" y="1082" type="qcurve"/>
      <point x="722" y="1118"/>
      <point x="673" y="1156"/>
      <point x="628" y="1156" type="qcurve"/>
      <point x="532" y="1156" type="line"/>
    </contour>
  </outline>
</glyph>
<glyph name="twosuperior" format="2">
  <advance width="844"/>
  <unicode hex="00B2"/>
  <outline>
    <contour>
      <point x="78" y="722" type="line"/>
      <point x="78" y="888" type="line"/>
      <point x="276" y="1058" type="line"/>
      <point x="357" y="1128"/>
      <point x="456" y="1222"/>
      <point x="500" y="1294"/>
      <point x="500" y="1332" type="qcurve"/>
      <point x="500" y="1383"/>
      <point x="429" y="1434"/>
      <point x="364" y="1434" type="qcurve"/>
      <point x="301" y="1434"/>
      <point x="189" y="1383"/>
      <point x="144" y="1336" type="qcurve"/>
      <point x="57" y="1525" type="line"/>
      <point x="125" y="1585"/>
      <point x="300" y="1652"/>
      <point x="390" y="1652" type="qcurve"/>
      <point x="552" y="1652"/>
      <point x="740" y="1492"/>
      <point x="740" y="1366" type="qcurve"/>
      <point x="740" y="1308"/>
      <point x="692" y="1199"/>
      <point x="579" y="1072"/>
      <point x="482" y="988" type="qcurve"/>
      <point x="420" y="934" type="line"/>
      <point x="766" y="934" type="line"/>
      <point x="766" y="722" type="line"/>
    </contour>
  </outline>
</glyph>
<glyph name="threesuperior" format="2">
  <advance width="826"/>
  <unicode hex="00B3"/>
  <outline>
    <contour>
      <point x="376" y="702" type="qcurve"/>
      <point x="279" y="702"/>
      <point x="101" y="765"/>
      <point x="60" y="810" type="qcurve"/>
      <point x="136" y="1014" type="line"/>
      <point x="171" y="971"/>
      <point x="295" y="920"/>
      <point x="358" y="920" type="qcurve"/>
      <point x="418" y="920"/>
      <point x="498" y="972"/>
      <point x="498" y="1014" type="qcurve"/>
      <point x="498" y="1061"/>
      <point x="425" y="1112"/>
      <point x="366" y="1112" type="qcurve"/>
      <point x="345" y="1112"/>
      <point x="290" y="1105"/>
      <point x="258" y="1096" type="qcurve"/>
      <point x="190" y="1258" type="line"/>
      <point x="408" y="1422" type="line"/>
      <point x="74" y="1422" type="line"/>
      <point x="74" y="1632" type="line"/>
      <point x="698" y="1632" type="line"/>
      <point x="698" y="1440" type="line"/>
      <point x="502" y="1260" type="line"/>
      <point x="560" y="1252"/>
      <point x="668" y="1187"/>
      <point x="738" y="1074"/>
      <point x="738" y="994" type="qcurve"/>
      <point x="738" y="910"/>
      <point x="645" y="778"/>
      <point x="482" y="702"/>
    </contour>
  </outline>
</glyph>
<glyph name="mu" format="2">
  <advance width="1340"/>
  <unicode hex="00B5"/>
  <outline>
    <contour>
      <point x="128" y="-420" type="line"/>
      <point x="128" y="1040" type="line"/>
      <point x="528" y="1040" type="line"/>
      <point x="528" y="482" type="line"/>
      <point x="528" y="437"/>
      <point x="562" y="369"/>
      <point x="625" y="330"/>
      <point x="670" y="330" type="qcurve"/>
      <point x="715" y="330"/>
      <point x="779" y="369"/>
      <point x="812" y="437"/>
      <point x="812" y="482" type="qcurve"/>
      <point x="812" y="1040" type="line"/>
      <point x="1212" y="1040" type="line"/>
      <point x="1212" y="0" type="line"/>
      <point x="872" y="0" type="line"/>
      <point x="872" y="102" type="line"/>
      <point x="842" y="56"/>
      <point x="740" y="-30"/>
      <point x="650" y="-30" type="qcurve"/>
      <point x="580" y="-30"/>
      <point x="488" y="12"/>
      <point x="458" y="42" type="qcurve"/>
      <point x="488" y="-420" type="line"/>
    </contour>
  </outline>
</glyph>
<glyph name="paragraph" format="2">
  <advance width="1444"/>
  <unicode hex="00B6"/>
  <outline>
    <contour>
      <point x="558" y="-420" type="line"/>
      <point x="558" y="510" type="line"/>
      <point x="610" y="464" type="line"/>
      <point x="441" y="464"/>
      <point x="184" y="579"/>
      <point x="40" y="789"/>
      <point x="40" y="932" type="qcurve"/>
      <point x="40" y="1075"/>
      <point x="184" y="1285"/>
      <point x="441" y="1400"/>
      <point x="610" y="1400" type="qcurve"/>
      <point x="1414" y="1400" type="line"/>
      <point x="1414" y="1186" type="line"/>
      <point x="1210" y="1186" type="line"/>
      <point x="1210" y="-420" type="line"/>
      <point x="950" y="-420" type="line"/>
      <point x="950" y="1186" type="line"/>
      <point x="818" y="1186" type="line"/>
      <point x="818" y="-420" type="line"/>
    </contour>
  </outline>
</glyph>
<glyph name="onehalf" format="2">
  <advance width="1906"/>
  <unicode hex="00BD"/>
  <outline>
    <contour>
      <point x="300" y="490" type="line"/>
      <point x="300" y="1112" type="line"/>
      <point x="104" y="1050" type="line"/>
      <point x="36" y="1254" type="line"/>
      <point x="522" y="1420" type="line"/>
      <point x="540" y="1420" type="line"/>
      <point x="540" y="490" type="line"/>
    </contour>
    <contour>
      <point x="1140" y="0" type="line"/>
      <point x="1140" y="166" type="line"/>
      <point x="1338" y="336" type="line"/>
      <point x="1419" y="406"/>
      <point x="1518" y="500"/>
      <point x="1562" y="572"/>
      <point x="1562" y="610" type="qcurve"/>
      <point x="1562" y="661"/>
      <point x="1491" y="712"/>
      <point x="1426" y="712" type="qcurve"/>
      <point x="1369" y="712"/>
      <point x="1256" y="665"/>
      <point x="1206" y="614" type="qcurve"/>
      <point x="1119" y="803" type="line"/>
      <point x="1187" y="863"/>
      <point x="1362" y="930"/>
      <point x="1452" y="930" type="qcurve"/>
      <point x="1614" y="930"/>
      <point x="1802" y="770"/>
      <point x="1802" y="644" type="qcurve"/>
      <point x="1802" y="586"/>
      <point x="1754" y="477"/>
      <point x="1641" y="350"/>
      <point x="1544" y="266" type="qcurve"/>
      <point x="1482" y="212" type="line"/>
      <point x="1828" y="212" type="line"/>
      <point x="1828" y="0" type="line"/>
    </contour>
    <contour>
      <point x="582" y="-40" type="line"/>
      <point x="382" y="78" type="line"/>
      <point x="1146" y="1440" type="line"/>
      <point x="1346" y="1326" type="line"/>
    </contour>
  </outline>
</glyph>
<glyph name="threequarters" format="2">
  <advance width="2050"/>
  <unicode hex="00BE"/>
  <outline>
    <contour>
      <point x="376" y="470" type="qcurve"/>
      <point x="279" y="470"/>
      <point x="101" y="533"/>
      <point x="60" y="578" type="qcurve"/>
      <point x="136" y="782" type="line"/>
      <point x="171" y="739"/>
      <point x="295" y="688"/>
      <point x="358" y="688" type="qcurve"/>
      <point x="418" y="688"/>
      <point x="498" y="740"/>
      <point x="498" y="782" type="qcurve"/>
      <point x="498" y="829"/>
      <point x="425" y="880"/>
      <point x="366" y="880" type="qcurve"/>
      <point x="345" y="880"/>
      <point x="290" y="873"/>
      <point x="258" y="864" type="qcurve"/>
      <point x="190" y="1026" type="line"/>
      <point x="408" y="1190" type="line"/>
      <point x="74" y="1190" type="line"/>
      <point x="74" y="1400" type="line"/>
      <point x="698" y="1400" type="line"/>
      <point x="698" y="1208" type="line"/>
      <point x="502" y="1028" type="line"/>
      <point x="560" y="1020"/>
      <point x="668" y="955"/>
      <point x="738" y="842"/>
      <point x="738" y="762" type="qcurve"/>
      <point x="738" y="678"/>
      <point x="645" y="546"/>
      <point x="482" y="470"/>
    </contour>
    <contour>
      <point x="1670" y="0" type="line"/>
      <point x="1670" y="160" type="line"/>
      <point x="1236" y="160" type="line"/>
      <point x="1236" y="344" type="line"/>
      <point x="1512" y="910" type="line"/>
      <point x="1766" y="910" type="line"/>
      <point x="1502" y="366" type="line"/>
      <point x="1670" y="366" type="line"/>
      <point x="1670" y="528" type="line"/>
      <point x="1884" y="528" type="line"/>
      <point x="1884" y="366" type="line"/>
      <point x="2002" y="366" type="line"/>
      <point x="2002" y="160" type="line"/>
      <point x="1884" y="160" type="line"/>
      <point x="1884" y="0" type="line"/>
    </contour>
    <contour>
      <point x="742" y="-40" type="line"/>
      <point x="542" y="78" type="line"/>
      <point x="1306" y="1440" type="line"/>
      <point x="1506" y="1326" type="line"/>
    </contour>
  </outline>
</glyph>
<glyph name="Eth" format="2">
  <advance width="1520"/>
  <unicode hex="00D0"/>
  <anchor x="764" y="1400" name="top"/>
  <anchor x="480" y="712" name="strokeshort"/>
  <outline>
    <contour>
      <point x="-22" y="558" type="line"/>
      <point x="-22" y="866" type="line"/>
      <point x="864" y="866" type="line"/>
      <point x="864" y="558" type="line"/>
    </contour>
    <contour>
      <point x="196" y="0" type="line"/>
      <point x="196" y="1400" type="line"/>
      <point x="704" y="1400" type="line"/>
      <point x="928" y="1400"/>
      <point x="1264" y="1223"/>
      <point x="1450" y="908"/>
      <point x="1450" y="700" type="qcurve"/>
      <point x="1450" y="543"/>
      <point x="1344" y="285"/>
      <point x="1147" y="100"/>
      <point x="873" y="0"/>
      <point x="704" y="0" type="qcurve"/>
    </contour>
    <contour>
      <point x="600" y="376" type="line"/>
      <point x="694" y="376" type="line"/>
      <point x="768" y="376"/>
      <point x="889" y="415"/>
      <point x="978" y="496"/>
      <point x="1026" y="618"/>
      <point x="1026" y="700" type="qcurve"/>
      <point x="1026" y="810"/>
      <point x="942" y="954"/>
      <point x="792" y="1024"/>
      <point x="694" y="1024" type="qcurve"/>
      <point x="600" y="1024" type="line"/>
    </contour>
  </outline>
</glyph>
<glyph name="Thorn" format="2">
  <advance width="1380"/>
  <unicode hex="00DE"/>
  <outline>
    <contour>
      <point x="156" y="0" type="line"/>
      <point x="156" y="1400" type="line"/>
      <point x="560" y="1400" type="line"/>
      <point x="560" y="1204" type="line"/>
      <point x="772" y="1204" type="line"/>
      <point x="933" y="1204"/>
      <point x="1185" y="1090"/>
      <point x="1330" y="873"/>
      <point x="1330" y="720" type="qcurve"/>
      <point x="1330" y="566"/>
      <point x="1196" y="350"/>
      <point x="942" y="236"/>
      <point x="762" y="236" type="qcurve"/>
      <point x="560" y="236" type="line"/>
      <point x="560" y="0" type="line"/>
    </contour>
    <contour>
      <point x="560" y="570" type="line"/>
      <point x="746" y="570" type="line"/>
      <point x="830" y="570"/>
      <point x="926" y="633"/>
      <point x="926" y="714" type="qcurve"/>
      <point x="926" y="798"/>
      <point x="826" y="860"/>
      <point x="748" y="860" type="qcurve"/>
      <point x="560" y="860" type="line"/>
    </contour>
  </outline>
</glyph>
<glyph name="ae" format="2">
  <advance width="1886"/>
  <unicode hex="00E6"/>
  <anchor x="944" y="1040" name="top"/>
  <outline>
    <contour>
      <point x="462" y="-30" type="qcurve"/>
      <point x="282" y="-30"/>
      <point x="56" y="148"/>
      <point x="56" y="308" type="qcurve"/>
      <point x="56" y="432"/>
      <point x="216" y="597"/>
      <point x="528" y="667"/>
      <point x="756" y="648" type="qcurve"/>
      <point x="754" y="412" type="line"/>
      <point x="665" y="431"/>
      <point x="512" y="428"/>
      <point x="418" y="379"/>
      <point x="418" y="328" type="qcurve"/>
      <point x="418" y="289"/>
      <point x="480" y="250"/>
      <point x="534" y="250" type="qcurve"/>
      <point x="581" y="250"/>
      <point x="660" y="279"/>
      <point x="708" y="346"/>
      <point x="708" y="402" type="qcurve"/>
      <point x="710" y="622" type="line"/>
      <point x="710" y="687"/>
      <point x="619" y="770"/>
      <point x="488" y="770" type="qcurve"/>
      <point x="424" y="770"/>
      <point x="263" y="722"/>
      <point x="204" y="678" type="qcurve"/>
      <point x="106" y="944" type="line"/>
      <point x="210" y="1007"/>
      <point x="453" y="1070"/>
      <point x="570" y="1070" type="qcurve"/>
      <point x="735" y="1070"/>
      <point x="987" y="949"/>
      <point x="1048" y="808" type="qcurve"/>
      <point x="870" y="842" type="line"/>
      <point x="968" y="953"/>
      <point x="1204" y="1070"/>
      <point x="1336" y="1070" type="qcurve"/>
      <point x="1509" y="1070"/>
      <point x="1753" y="895"/>
      <point x="1858" y="595"/>
      <point x="1822" y="408" type="qcurve"/>
      <point x="1100" y="408" type="line"/>
      <point x="1106" y="347"/>
      <point x="1228" y="270"/>
      <point x="1318" y="270" type="qcurve"/>
      <point x="1407" y="270"/>
      <point x="1566" y="314"/>
      <point x="1648" y="362" type="qcurve"/>
      <point x="1762" y="98" type="line"/>
      <point x="1721" y="63"/>
      <point x="1579" y="5"/>
      <point x="1409" y="-30"/>
      <point x="1326" y="-30" type="qcurve"/>
      <point x="1125" y="-30"/>
      <point x="815" y="170"/>
      <point x="756" y="372" type="qcurve"/>
      <point x="928" y="406" type="line"/>
      <point x="929" y="264"/>
      <point x="802" y="70"/>
      <point x="589" y="-30"/>
    </contour>
    <contour>
      <point x="1126" y="668" type="qcurve"/>
      <point x="1458" y="668" type="line"/>
      <point x="1458" y="722"/>
      <point x="1370" y="790"/>
      <point x="1302" y="790" type="qcurve"/>
      <point x="1227" y="790"/>
      <point x="1129" y="722"/>
    </contour>
  </outline>
</glyph>
<glyph name="oslash" format="2">
  <advance width="1276"/>
  <unicode hex="00F8"/>
  <anchor x="638" y="1040" name="top"/>
  <outline>
    <contour>
      <point x="264" y="-138" type="line"/>
      <point x="70" y="34" type="line"/>
      <point x="180" y="168" type="line"/>
      <point x="119" y="240"/>
      <point x="50" y="420"/>
      <point x="50" y="520" type="qcurve"/>
      <point x="50" y="628"/>
      <point x="135" y="826"/>
      <point x="292" y="980"/>
      <point x="508" y="1070"/>
      <point x="638" y="1070" type="qcurve"/>
      <point x="706" y="1070"/>
      <point x="828" y="1047"/>
      <point x="882" y="1024" type="qcurve"/>
      <point x="1010" y="1180" type="line"/>
      <point x="1204" y="1008" type="line"/>
      <point x="1094" y="874" type="line"/>
      <point x="1157" y="802"/>
      <point x="1226" y="621"/>
      <point x="1226" y="520" type="qcurve"/>
      <point x="1226" y="412"/>
      <point x="1141" y="214"/>
      <point x="984" y="60"/>
      <point x="769" y="-30"/>
      <point x="638" y="-30" type="qcurve"/>
      <point x="571" y="-30"/>
      <point x="446" y="-6"/>
      <point x="392" y="16" type="qcurve"/>
    </contour>
    <contour>
      <point x="420" y="438" type="qcurve"/>
      <point x="682" y="756" type="line"/>
      <point x="675" y="758"/>
      <point x="658" y="758"/>
      <point x="650" y="758" type="qcurve"/>
      <point x="582" y="758"/>
      <point x="474" y="697"/>
      <point x="412" y="586"/>
      <point x="412" y="510" type="qcurve"/>
      <point x="412" y="491"/>
      <point x="416" y="455"/>
    </contour>
    <contour>
      <point x="626" y="282" type="qcurve"/>
      <point x="693" y="282"/>
      <point x="801" y="342"/>
      <point x="864" y="453"/>
      <point x="864" y="530" type="qcurve"/>
      <point x="864" y="550"/>
      <point x="861" y="588"/>
      <point x="856" y="606" type="qcurve"/>
      <point x="590" y="284" type="line"/>
      <point x="599" y="283"/>
      <point x="617" y="282"/>
    </contour>
  </outline>
</glyph>
<glyph name="thorn" format="2">
  <advance width="1364"/>
  <unicode hex="00FE"/>
  <outline>
    <contour>
      <point x="128" y="-420" type="line"/>
      <point x="128" y="1440" type="line"/>
      <point x="526" y="1440" type="line"/>
      <point x="526" y="988" type="line"/>
      <point x="585" y="1030"/>
      <point x="719" y="1070"/>
      <point x="792" y="1070" type="qcurve"/>
      <point x="944" y="1070"/>
      <point x="1180" y="926"/>
      <point x="1314" y="677"/>
      <point x="1314" y="520" type="qcurve"/>
      <point x="1314" y="402"/>
      <point x="1237" y="202"/>
      <point x="1097" y="53"/>
      <point x="906" y="-30"/>
      <point x="792" y="-30" type="qcurve"/>
      <point x="719" y="-30"/>
      <point x="585" y="10"/>
      <point x="526" y="52" type="qcurve"/>
      <point x="526" y="-420" type="line"/>
    </contour>
    <contour>
      <point x="726" y="310" type="qcurve"/>
      <point x="783" y="310"/>
      <point x="874" y="361"/>
      <point x="926" y="455"/>
      <point x="926" y="520" type="qcurve"/>
      <point x="926" y="585"/>
      <point x="874" y="679"/>
      <point x="783" y="730"/>
      <point x="726" y="730" type="qcurve"/>
      <point x="669" y="730"/>
      <point x="578" y="679"/>
      <point x="526" y="585"/>
      <point x="526" y="520" type="qcurve"/>
      <point x="526" y="455"/>
      <point x="578" y="361"/>
      <point x="669" y="310"/>
    </contour>
  </outline>
</glyph>
<glyph name="aogonek" format="2">
  <advance width="1203"/>
  <unicode hex="0105"/>
  <anchor x="570" y="1040" name="top"/>
  <anchor x="570" y="0" name="bottom"/>
  <outline>
    <contour>
      <point x="838" y="-450" type="qcurve"/>
      <point x="729" y="-450"/>
      <point x="588" y="-320"/>
      <point x="588" y="-219" type="qcurve"/>
      <point x="588" y="-125"/>
      <point x="708" y="21"/>
      <point x="925" y="110"/>
      <point x="1069" y="116" type="qcurve"/>
      <point x="1088" y="0" type="line"/>
      <point x="998" y="0"/>
      <point x="880" y="-37"/>
      <point x="822" y="-102"/>
      <point x="822" y="-145" type="qcurve"/>
      <point x="822" y="-180"/>
      <point x="867" y="-222"/>
      <point x="904" y="-222" type="qcurve"/>
      <point x="931" y="-222"/>
      <point x="985" y="-196"/>
      <point x="1006" y="-174" type="qcurve"/>
      <point x="1093" y="-370" type="line"/>
      <point x="1038" y="-409"/>
      <point x="907" y="-450"/>
    </contour>
    <contour>
      <point x="422" y="-30" type="qcurve"/>
      <point x="322" y="-30"/>
      <point x="156" y="50"/>
      <point x="56" y="201"/>
      <point x="56" y="308" type="qcurve"/>
      <point x="56" y="401"/>
      <point x="147" y="541"/>
      <point x="325" y="630"/>
      <point x="588" y="662"/>
      <point x="760" y="648" type="qcurve"/>
      <point x="762" y="410" type="line"/>
      <point x="694" y="425"/>
      <point x="570" y="432"/>
      <point x="474" y="414"/>
      <point x="418" y="369"/>
      <point x="418" y="331" type="qcurve"/>
      <point x="418" y="290"/>
      <point x="484" y="250"/>
      <point x="537" y="250" type="qcurve"/>
      <point x="585" y="250"/>
      <point x="662" y="282"/>
      <point x="708" y="349"/>
      <point x="708" y="402" type="qcurve"/>
      <point x="708" y="614" type="line"/>
      <point x="708" y="662"/>
      <point x="670" y="737"/>
      <point x="580" y="780"/>
      <point x="500" y="780" type="qcurve"/>
      <point x="420" y="780"/>
      <point x="263" y="732"/>
      <point x="204" y="688" type="qcurve"/>
      <point x="106" y="954" type="line"/>
      <point x="210" y="1017"/>
      <point x="452" y="1080"/>
      <point x="570" y="1080" type="qcurve"/>
      <point x="719" y="1080"/>
      <point x="953" y="985"/>
      <point x="1088" y="782"/>
      <point x="1088" y="620" type="qcurve"/>
      <point x="1088" y="0" type="line"/>
      <point x="748" y="0" type="line"/>
      <point x="748" y="102" type="line"/>
      <point x="700" y="39"/>
      <point x="532" y="-30"/>
    </contour>
  </outline>
</glyph>
<glyph name="Lslash" format="2">
  <advance width="1190"/>
  <unicode hex="0141"/>
  <anchor x="398" y="1400" name="top"/>
  <anchor x="600" y="1440" name="Anchor_2"/>
  <anchor x="664" y="0" name="bottom"/>
  <outline>
    <contour>
      <point x="45" y="387" type="line"/>
      <point x="-89" y="673" type="line"/>
      <point x="370" y="886" type="line"/>
      <point x="370" y="846" type="line"/>
      <point x="957" y="1121" type="line"/>
      <point x="1091" y="835" type="line"/>
      <point x="370" y="498" type="line"/>
      <point x="370" y="538" type="line"/>
    </contour>
    <contour>
      <point x="196" y="0" type="line"/>
      <point x="196" y="1400" type="line"/>
      <point x="600" y="1400" type="line"/>
      <point x="600" y="368" type="line"/>
      <point x="1130" y="368" type="line"/>
      <point x="1130" y="0" type="line"/>
    </contour>
  </outline>
</glyph>
<glyph name="lslash" format="2">
  <advance width="836"/>
  <unicode hex="0142"/>
  <anchor x="418" y="1440" name="top"/>
  <anchor x="618" y="1440" name="Anchor_2"/>
  <anchor x="418" y="0" name="bottom"/>
  <outline>
    <component base="l" xOffset="90"/>
    <contour>
      <point x="95" y="373" type="line"/>
      <point x="-43" y="655" type="line"/>
      <point x="418" y="878" type="line"/>
      <point x="418" y="838" type="line"/>
      <point x="741" y="988" type="line"/>
      <point x="879" y="704" type="line"/>
      <point x="418" y="490" type="line"/>
      <point x="418" y="530" type="line"/>
    </contour>
  </outline>
</glyph>
<glyph name="Eng" format="2">
  <advance width="1596"/>
  <unicode hex="014A"/>
  <outline>
    <contour>
      <point x="1068" y="-50" type="line"/>
      <point x="546" y="764" type="line"/>
      <point x="546" y="0" type="line"/>
      <point x="156" y="0" type="line"/>
      <point x="156" y="1400" type="line"/>
      <point x="560" y="1400" type="line"/>
      <point x="1068" y="622" type="line"/>
    </contour>
    <contour>
      <point x="1028" y="-450" type="qcurve"/>
      <point x="940" y="-450"/>
      <point x="823" y="-424"/>
      <point x="760" y="-390" type="qcurve"/>
      <point x="834" y="-100" type="line"/>
      <point x="861" y="-113"/>
      <point x="914" y="-126"/>
      <point x="944" y="-126" type="qcurve"/>
      <point x="997" y="-126"/>
      <point x="1050" y="-79"/>
      <point x="1050" y="-40" type="qcurve"/>
      <point x="1050" y="1400" type="line"/>
      <point x="1440" y="1400" type="line"/>
      <point x="1440" y="-36" type="line"/>
      <point x="1440" y="-158"/>
      <point x="1336" y="-345"/>
      <point x="1150" y="-450"/>
    </contour>
  </outline>
</glyph>
<glyph name="eng" format="2">
  <advance width="1358"/>
  <unicode hex="014B"/>
  <outline>
    <contour>
      <point x="828" y="-450" type="qcurve"/>
      <point x="740" y="-450"/>
      <point x="623" y="-424"/>
      <point x="560" y="-390" type="qcurve"/>
      <point x="634" y="-100" type="line"/>
      <point x="660" y="-113"/>
      <point x="710" y="-126"/>
      <point x="738" y="-126" type="qcurve"/>
      <point x="789" y="-126"/>
      <point x="840" y="-71"/>
      <point x="840" y="-14" type="qcurve"/>
      <point x="840" y="536" type="line"/>
      <point x="840" y="619"/>
      <point x="766" y="710"/>
      <point x="686" y="710" type="qcurve"/>
      <point x="635" y="710"/>
      <point x="565" y="666"/>
      <point x="528" y="587"/>
      <point x="528" y="536" type="qcurve"/>
      <point x="528" y="0" type="line"/>
      <point x="128" y="0" type="line"/>
      <point x="128" y="1040" type="line"/>
      <point x="528" y="1040" type="line"/>
      <point x="528" y="944" type="line"/>
      <point x="582" y="1009"/>
      <point x="728" y="1070"/>
      <point x="812" y="1070" type="qcurve"/>
      <point x="961" y="1070"/>
      <point x="1150" y="954"/>
      <point x="1240" y="768"/>
      <point x="1240" y="662" type="qcurve"/>
      <point x="1240" y="-36" type="line"/>
      <point x="1240" y="-158"/>
      <point x="1136" y="-345"/>
      <point x="950" y="-450"/>
    </contour>
  </outline>
</glyph>
<glyph name="Uogonek" format="2">
  <advance width="1542"/>
  <unicode hex="0172"/>
  <anchor x="771" y="1400" name="top"/>
  <outline>
    <contour>
      <point x="937" y="-450" type="qcurve"/>
      <point x="828" y="-450"/>
      <point x="687" y="-320"/>
      <point x="687" y="-219" type="qcurve"/>
      <point x="687" y="-166"/>
      <point x="715" y="-70"/>
      <point x="742" y="-30" type="qcurve"/>
      <point x="549" y="-24"/>
      <point x="284" y="137"/>
      <point x="149" y="415"/>
      <point x="149" y="596" type="qcurve"/>
      <point x="149" y="1400" type="line"/>
      <point x="553" y="1400" type="line"/>
      <point x="553" y="574" type="line"/>
      <point x="553" y="459"/>
      <point x="666" y="348"/>
      <point x="771" y="348" type="qcurve"/>
      <point x="875" y="348"/>
      <point x="987" y="459"/>
      <point x="987" y="574" type="qcurve"/>
      <point x="987" y="1400" type="line"/>
      <point x="1393" y="1400" type="line"/>
      <point x="1393" y="596" type="line"/>
      <point x="1393" y="385"/>
      <point x="1209" y="78"/>
      <point x="1030" y="12" type="qcurve"/>
      <point x="976" y="-8"/>
      <point x="921" y="-92"/>
      <point x="921" y="-145" type="qcurve"/>
      <point x="921" y="-180"/>
      <point x="966" y="-222"/>
      <point x="1003" y="-222" type="qcurve"/>
      <point x="1030" y="-222"/>
      <point x="1084" y="-196"/>
      <point x="1105" y="-174" type="qcurve"/>
      <point x="1192" y="-370" type="line"/>
      <point x="1137" y="-409"/>
      <point x="1006" y="-450"/>
    </contour>
  </outline>
</glyph>
<glyph name="uogonek" format="2">
  <advance width="1326"/>
  <unicode hex="0173"/>
  <anchor x="668" y="1040" name="top"/>
  <anchor x="1198" y="1040" name="horn"/>
  <anchor x="656" y="0" name="bottom"/>
  <outline>
    <contour>
      <point x="948" y="-450" type="qcurve"/>
      <point x="839" y="-450"/>
      <point x="698" y="-320"/>
      <point x="698" y="-219" type="qcurve"/>
      <point x="698" y="-125"/>
      <point x="818" y="21"/>
      <point x="1035" y="110"/>
      <point x="1179" y="116" type="qcurve"/>
      <point x="1198" y="0" type="line"/>
      <point x="1108" y="0"/>
      <point x="990" y="-37"/>
      <point x="932" y="-102"/>
      <point x="932" y="-145" type="qcurve"/>
      <point x="932" y="-180"/>
      <point x="977" y="-222"/>
      <point x="1014" y="-222" type="qcurve"/>
      <point x="1041" y="-222"/>
      <point x="1095" y="-196"/>
      <point x="1116" y="-174" type="qcurve"/>
      <point x="1203" y="-370" type="line"/>
      <point x="1148" y="-409"/>
      <point x="1017" y="-450"/>
    </contour>
    <contour>
      <point x="540" y="-30" type="qcurve"/>
      <point x="396" y="-30"/>
      <point x="209" y="80"/>
      <point x="118" y="285"/>
      <point x="118" y="428" type="qcurve"/>
      <point x="118" y="1040" type="line"/>
      <point x="518" y="1040" type="line"/>
      <point x="518" y="482" type="line"/>
      <point x="518" y="410"/>
      <point x="586" y="330"/>
      <point x="656" y="330" type="qcurve"/>
      <point x="701" y="330"/>
      <point x="765" y="369"/>
      <point x="798" y="437"/>
      <point x="798" y="482" type="qcurve"/>
      <point x="798" y="1040" type="line"/>
      <point x="1198" y="1040" type="line"/>
      <point x="1198" y="0" type="line"/>
      <point x="858" y="0" type="line"/>
      <point x="858" y="102" type="line"/>
      <point x="815" y="56"/>
      <point x="671" y="-30"/>
    </contour>
  </outline>
</glyph>
<glyph name="schwa" format="2">
  <advance width="1222"/>
  <unicode hex="0259"/>
  <outline>
    <contour>
      <point x="606" y="-30" type="qcurve"/>
      <point x="465" y="-30"/>
      <point x="241" y="72"/>
      <point x="94" y="255"/>
      <point x="37" y="500"/>
      <point x="62" y="642" type="qcurve"/>
      <point x="944" y="642" type="line"/>
      <point x="944" y="382" type="line"/>
      <point x="256" y="382" type="line"/>
      <point x="388" y="506" type="line"/>
      <point x="388" y="380"/>
      <point x="495" y="250"/>
      <point x="598" y="250" type="qcurve"/>
      <point x="674" y="250"/>
      <point x="777" y="312"/>
      <point x="830" y="435"/>
      <point x="830" y="526" type="qcurve"/>
      <point x="830" y="608"/>
      <point x="770" y="716"/>
      <point x="650" y="770"/>
      <point x="560" y="770" type="qcurve"/>
      <point x="473" y="770"/>
      <point x="312" y="720"/>
      <point x="238" y="670" type="qcurve"/>
      <point x="122" y="934" type="line"/>
      <point x="167" y="971"/>
      <point x="317" y="1033"/>
      <point x="487" y="1070"/>
      <point x="562" y="1070" type="qcurve"/>
      <point x="752" y="1070"/>
      <point x="1025" y="939"/>
      <point x="1172" y="695"/>
      <point x="1172" y="526" type="qcurve"/>
      <point x="1172" y="407"/>
      <point x="1087" y="204"/>
      <point x="933" y="53"/>
      <point x="727" y="-30"/>
    </contour>
  </outline>
</glyph>
<glyph name="acutecomb" format="2">
  <unicode hex="0301"/>
  <anchor x="-638" y="1040" name="top"/>
  <outline>
    <contour>
      <point x="-838" y="1170" type="line"/>
      <point x="-640" y="1544" type="line"/>
      <point x="-246" y="1544" type="line"/>
      <point x="-480" y="1170" type="line"/>
    </contour>
  </outline>
</glyph>
<glyph name="tildecomb" format="2">
  <unicode hex="0303"/>
  <anchor x="-638" y="1040" name="top"/>
  <anchor x="-638" y="1464" name="top.1"/>
  <outline>
    <contour>
      <point x="-952" y="1144" type="qcurve"/>
      <point x="-1096" y="1304" type="line"/>
      <point x="-1051" y="1421"/>
      <point x="-901" y="1544"/>
      <point x="-804" y="1544" type="qcurve"/>
      <point x="-733" y="1544"/>
      <point x="-618" y="1490"/>
      <point x="-514" y="1436"/>
      <point x="-460" y="1436" type="qcurve"/>
      <point x="-413" y="1436"/>
      <point x="-344" y="1499"/>
      <point x="-322" y="1568" type="qcurve"/>
      <point x="-180" y="1406" type="line"/>
      <point x="-199" y="1289"/>
      <point x="-349" y="1170"/>
      <point x="-450" y="1170" type="qcurve"/>
      <point x="-522" y="1170"/>
      <point x="-645" y="1224"/>
      <point x="-755" y="1278"/>
      <point x="-806" y="1278" type="qcurve"/>
      <point x="-854" y="1278"/>
      <point x="-928" y="1213"/>
    </contour>
  </outline>
</glyph>
<glyph name="dotaccentcomb" format="2">
  <unicode hex="0307"/>
  <anchor x="-638" y="1040" name="top"/>
  <anchor x="-638" y="1484" name="top.1"/>
  <outline>
    <contour>
      <point x="-638" y="1174" type="qcurve"/>
      <point x="-731" y="1174"/>
      <point x="-868" y="1287"/>
      <point x="-868" y="1386" type="qcurve"/>
      <point x="-868" y="1485"/>
      <point x="-731" y="1598"/>
      <point x="-638" y="1598" type="qcurve"/>
      <point x="-545" y="1598"/>
      <point x="-408" y="1485"/>
      <point x="-408" y="1386" type="qcurve"/>
      <point x="-408" y="1287"/>
      <point x="-545" y="1174"/>
    </contour>
  </outline>
</glyph>
<glyph name="dieresiscomb" format="2">
  <unicode hex="0308"/>
  <anchor x="-638" y="1040" name="top"/>
  <anchor x="-638" y="1484" name="top.1"/>
  <outline>
    <contour>
      <point x="-912" y="1170" type="qcurve"/>
      <point x="-993" y="1170"/>
      <point x="-1122" y="1280"/>
      <point x="-1122" y="1374" type="qcurve"/>
      <point x="-1122" y="1437"/>
      <point x="-1062" y="1529"/>
      <point x="-966" y="1578"/>
      <point x="-912" y="1578" type="qcurve"/>
      <point x="-831" y="1578"/>
      <point x="-702" y="1469"/>
      <point x="-702" y="1374" type="qcurve"/>
      <point x="-702" y="1311"/>
      <point x="-762" y="1220"/>
      <point x="-858" y="1170"/>
    </contour>
    <contour>
      <point x="-364" y="1170" type="qcurve"/>
      <point x="-445" y="1170"/>
      <point x="-574" y="1280"/>
      <point x="-574" y="1374" type="qcurve"/>
      <point x="-574" y="1437"/>
      <point x="-514" y="1529"/>
      <point x="-418" y="1578"/>
      <point x="-364" y="1578" type="qcurve"/>
      <point x="-283" y="1578"/>
      <point x="-154" y="1469"/>
      <point x="-154" y="1374" type="qcurve"/>
      <point x="-154" y="1311"/>
      <point x="-214" y="1220"/>
      <point x="-310" y="1170"/>
    </contour>
  </outline>
</glyph>
<glyph name="hookabovecomb" format="2">
  <unicode hex="0309"/>
  <anchor x="-630" y="1040" name="top"/>
  <outline>
    <contour>
      <point x="-754" y="1170" type="line"/>
      <point x="-793" y="1236"/>
      <point x="-762" y="1324"/>
      <point x="-696" y="1346" type="qcurve"/>
      <point x="-660" y="1358"/>
      <point x="-636" y="1376"/>
      <point x="-636" y="1392" type="qcurve"/>
      <point x="-636" y="1409"/>
      <point x="-678" y="1426"/>
      <point x="-708" y="1426" type="qcurve"/>
      <point x="-756" y="1426"/>
      <point x="-825" y="1406"/>
      <point x="-860" y="1388" type="qcurve"/>
      <point x="-912" y="1570" type="line"/>
      <point x="-859" y="1600"/>
      <point x="-705" y="1634"/>
      <point x="-630" y="1634" type="qcurve"/>
      <point x="-492" y="1634"/>
      <point x="-332" y="1533"/>
      <point x="-332" y="1446" type="qcurve"/>
      <point x="-332" y="1388"/>
      <point x="-385" y="1308"/>
      <point x="-454" y="1272" type="qcurve"/>
      <point x="-508" y="1244"/>
      <point x="-530" y="1202"/>
      <point x="-514" y="1170" type="qcurve"/>
    </contour>
  </outline>
</glyph>
<glyph name="dblgravecomb" format="2">
  <unicode hex="030F"/>
  <anchor x="-638" y="1040" name="top"/>
  <outline>
    <contour>
      <point x="-528" y="1170" type="line"/>
      <point x="-742" y="1544" type="line"/>
      <point x="-378" y="1544" type="line"/>
      <point x="-200" y="1170" type="line"/>
    </contour>
    <contour>
      <point x="-1038" y="1170" type="line"/>
      <point x="-1252" y="1544" type="line"/>
      <point x="-888" y="1544" type="line"/>
      <point x="-710" y="1170" type="line"/>
    </contour>
  </outline>
</glyph>
<glyph name="dotbelowcomb" format="2">
  <unicode hex="0323"/>
  <anchor x="-638" y="0" name="bottom"/>
  <outline>
    <contour>
      <point x="-638" y="-558" type="qcurve"/>
      <point x="-731" y="-558"/>
      <point x="-868" y="-445"/>
      <point x="-868" y="-346" type="qcurve"/>
      <point x="-868" y="-247"/>
      <point x="-731" y="-134"/>
      <point x="-638" y="-134" type="qcurve"/>
      <point x="-545" y="-134"/>
      <point x="-408" y="-247"/>
      <point x="-408" y="-346" type="qcurve"/>
      <point x="-408" y="-445"/>
      <point x="-545" y="-558"/>
    </contour>
  </outline>
</glyph>
<glyph name="cedillacomb" format="2">
  <unicode hex="0327"/>
  <anchor x="-658" y="0" name="bottom"/>
  <outline>
    <contour>
      <point x="-684" y="-450" type="qcurve"/>
      <point x="-769" y="-450"/>
      <point x="-915" y="-405"/>
      <point x="-966" y="-374" type="qcurve"/>
      <point x="-900" y="-208" type="line"/>
      <point x="-861" y="-241"/>
      <point x="-740" y="-268"/>
      <point x="-698" y="-268" type="qcurve"/>
      <point x="-659" y="-268"/>
      <point x="-620" y="-254"/>
      <point x="-620" y="-242" type="qcurve"/>
      <point x="-620" y="-224"/>
      <point x="-703" y="-209"/>
      <point x="-750" y="-218" type="qcurve"/>
      <point x="-822" y="-84" type="line"/>
      <point x="-766" y="40" type="line"/>
      <point x="-562" y="40" type="line"/>
      <point x="-592" y="-52" type="line"/>
      <point x="-478" y="-64"/>
      <point x="-348" y="-158"/>
      <point x="-348" y="-242" type="qcurve"/>
      <point x="-348" y="-314"/>
      <point x="-448" y="-406"/>
      <point x="-602" y="-450"/>
    </contour>
  </outline>
</glyph>
<glyph name="dieresistonos" format="2">
  <unicode hex="0385"/>
  <outline>
    <contour>
      <point x="-784" y="1330" type="line"/>
      <point x="-738" y="1704" type="line"/>
      <point x="-422" y="1704" type="line"/>
      <point x="-544" y="1330" type="line"/>
    </contour>
    <contour>
      <point x="-1012" y="1186" type="qcurve"/>
      <point x="-1090" y="1186"/>
      <point x="-1196" y="1289"/>
      <point x="-1196" y="1374" type="qcurve"/>
      <point x="-1196" y="1460"/>
      <point x="-1090" y="1562"/>
      <point x="-1012" y="1562" type="qcurve"/>
      <point x="-935" y="1562"/>
      <point x="-828" y="1457"/>
      <point x="-828" y="1374" type="qcurve"/>
      <point x="-828" y="1289"/>
      <point x="-934" y="1186"/>
    </contour>
    <contour>
      <point x="-264" y="1186" type="qcurve"/>
      <point x="-342" y="1186"/>
      <point x="-448" y="1289"/>
      <point x="-448" y="1374" type="qcurve"/>
      <point x="-448" y="1461"/>
      <point x="-342" y="1562"/>
      <point x="-264" y="1562" type="qcurve"/>
      <point x="-186" y="1562"/>
      <point x="-80" y="1460"/>
      <point x="-80" y="1374" type="qcurve"/>
      <point x="-80" y="1289"/>
      <point x="-186" y="1186"/>
    </contour>
  </outline>
</glyph>
<glyph name="Xi" format="2">
  <advance width="1298"/>
  <unicode hex="039E"/>
  <outline>
    <contour>
      <point x="104" y="0" type="line"/>
      <point x="104" y="352" type="line"/>
      <point x="1194" y="352" type="line"/>
      <point x="1194" y="0" type="line"/>
    </contour>
    <contour>
      <point x="244" y="548" type="line"/>
      <point x="244" y="866" type="line"/>
      <point x="1054" y="866" type="line"/>
      <point x="1054" y="548" type="line"/>
    </contour>
    <contour>
      <point x="124" y="1052" type="line"/>
      <point x="124" y="1400" type="line"/>
      <point x="1174" y="1400" type="line"/>
      <point x="1174" y="1052" type="line"/>
    </contour>
  </outline>
</glyph>
<glyph name="Omega" format="2">
  <advance width="1668"/>
  <unicode hex="03A9"/>
  <anchor x="834" y="0" name="bottom"/>
  <outline>
    <contour>
      <point x="50" y="0" type="line"/>
      <point x="50" y="350" type="line"/>
      <point x="374" y="350" type="line"/>
      <point x="311" y="382"/>
      <point x="180" y="504"/>
      <point x="90" y="694"/>
      <point x="90" y="828" type="qcurve"/>
      <point x="90" y="962"/>
      <point x="196" y="1182"/>
      <point x="393" y="1343"/>
      <point x="667" y="1430"/>
      <point x="834" y="1430" type="qcurve"/>
      <point x="1057" y="1430"/>
      <point x="1392" y="1277"/>
      <point x="1578" y="1006"/>
      <point x="1578" y="828" type="qcurve"/>
      <point x="1578" y="694"/>
      <point x="1503" y="518"/>
      <point x="1374" y="399"/>
      <point x="1294" y="350" type="qcurve"/>
      <point x="1618" y="350" type="line"/>
      <point x="1618" y="0" type="line"/>
      <point x="904" y="0" type="line"/>
      <point x="904" y="344" type="line"/>
      <point x="992" y="394"/>
      <point x="1102" y="504"/>
      <point x="1154" y="640"/>
      <point x="1154" y="728" type="qcurve"/>
      <point x="1154" y="832"/>
      <point x="1078" y="977"/>
      <point x="935" y="1052"/>
      <point x="834" y="1052" type="qcurve"/>
      <point x="758" y="1052"/>
      <point x="639" y="1009"/>
      <point x="557" y="927"/>
      <point x="514" y="806"/>
      <point x="514" y="728" type="qcurve"/>
      <point x="514" y="640"/>
      <point x="566" y="504"/>
      <point x="676" y="394"/>
      <point x="764" y="344" type="qcurve"/>
      <point x="764" y="0" type="line"/>
    </contour>
  </outline>
</glyph>
<glyph name="alpha" format="2">
  <advance width="1407"/>
  <unicode hex="03B1"/>
  <anchor x="726" y="1040" name="top"/>
  <outline>
    <contour>
      <point x="548" y="-30" type="qcurve"/>
      <point x="415" y="-30"/>
      <point x="188" y="100"/>
      <point x="50" y="346"/>
      <point x="50" y="520" type="qcurve"/>
      <point x="50" y="651"/>
      <point x="129" y="856"/>
      <point x="266" y="997"/>
      <point x="444" y="1070"/>
      <point x="544" y="1070" type="qcurve"/>
      <point x="614" y="1070"/>
      <point x="742" y="1032"/>
      <point x="849" y="953"/>
      <point x="888" y="890" type="qcurve"/>
      <point x="914" y="1040" type="line"/>
      <point x="1280" y="1040" type="line"/>
      <point x="1180" y="520" type="line"/>
      <point x="1167" y="453"/>
      <point x="1167" y="364"/>
      <point x="1199" y="319"/>
      <point x="1267" y="313"/>
      <point x="1322" y="328" type="qcurve"/>
      <point x="1356" y="17" type="line"/>
      <point x="1263" y="-32"/>
      <point x="1070" y="-28"/>
      <point x="919" y="65"/>
      <point x="890" y="150" type="qcurve"/>
      <point x="824" y="60"/>
      <point x="658" y="-30"/>
    </contour>
    <contour>
      <point x="596" y="310" type="qcurve"/>
      <point x="635" y="310"/>
      <point x="712" y="357"/>
      <point x="771" y="458"/>
      <point x="782" y="538" type="qcurve"/>
      <point x="777" y="574"/>
      <point x="754" y="634"/>
      <point x="719" y="681"/>
      <point x="675" y="713"/>
      <point x="625" y="730"/>
      <point x="598" y="730" type="qcurve"/>
      <point x="551" y="730"/>
      <point x="479" y="680"/>
      <point x="438" y="587"/>
      <point x="438" y="522" type="qcurve"/>
      <point x="438" y="417"/>
      <point x="536" y="310"/>
    </contour>
  </outline>
</glyph>
<glyph name="beta" format="2">
  <advance width="1326"/>
  <unicode hex="03B2"/>
  <outline>
    <contour>
      <point x="128" y="-420" type="line"/>
      <point x="128" y="936" type="line"/>
      <point x="128" y="1027"/>
      <point x="184" y="1213"/>
      <point x="314" y="1370"/>
      <point x="532" y="1466"/>
      <point x="694" y="1466" type="qcurve"/>
      <point x="867" y="1466"/>
      <point x="1097" y="1362"/>
      <point x="1212" y="1177"/>
      <point x="1212" y="1054" type="qcurve"/>
      <point x="1212" y="952"/>
      <point x="1111" y="818"/>
      <point x="1030" y="770" type="qcurve"/>
      <point x="1099" y="744"/>
      <point x="1211" y="644"/>
      <point x="1276" y="496"/>
      <point x="1276" y="398" type="qcurve"/>
      <point x="1276" y="257"/>
      <point x="1145" y="70"/>
      <point x="936" y="-24"/>
      <point x="818" y="-24" type="qcurve"/>
      <point x="767" y="-24"/>
      <point x="664" y="-5"/>
      <point x="568" y="38"/>
      <point x="528" y="74" type="qcurve"/>
      <point x="528" y="-420" type="line"/>
    </contour>
    <contour>
      <point x="722" y="318" type="qcurve"/>
      <point x="794" y="318"/>
      <point x="888" y="388"/>
      <point x="888" y="452" type="qcurve"/>
      <point x="888" y="508"/>
      <point x="810" y="580"/>
      <point x="730" y="580" type="qcurve"/>
      <point x="644" y="580" type="line"/>
      <point x="644" y="892" type="line"/>
      <point x="730" y="892" type="line"/>
      <point x="769" y="892"/>
      <point x="819" y="921"/>
      <point x="842" y="972"/>
      <point x="842" y="1006" type="qcurve"/>
      <point x="842" y="1071"/>
      <point x="762" y="1142"/>
      <point x="690" y="1142" type="qcurve"/>
      <point x="626" y="1142"/>
      <point x="528" y="1066"/>
      <point x="528" y="958" type="qcurve"/>
      <point x="528" y="490" type="line"/>
      <point x="528" y="428"/>
      <point x="577" y="352"/>
      <point x="664" y="318"/>
    </contour>
  </outline>
</glyph>
<glyph name="gamma" format="2">
  <advance width="1247"/>
  <unicode hex="03B3"/>
  <outline>
    <contour>
      <point x="398" y="-420" type="line"/>
      <point x="398" y="-52" type="line"/>
      <point x="10" y="1040" type="line"/>
      <point x="436" y="1040" type="line"/>
      <point x="672" y="190" type="line"/>
      <point x="560" y="276" type="line"/>
      <point x="620" y="376"/>
      <point x="712" y="643"/>
      <point x="777" y="930"/>
      <point x="795" y="1059" type="qcurve"/>
      <point x="1202" y="995" type="line"/>
      <point x="1162" y="745"/>
      <point x="953" y="228"/>
      <point x="798" y="-20" type="qcurve"/>
      <point x="798" y="-420" type="line"/>
    </contour>
  </outline>
</glyph>
<glyph name="delta" format="2">
  <advance width="1220"/>
  <unicode hex="03B4"/>
  <outline>
    <contour>
      <point x="610" y="-30" type="qcurve"/>
      <point x="432" y="-30"/>
      <point x="182" y="104"/>
      <point x="50" y="328"/>
      <point x="50" y="462" type="qcurve"/>
      <point x="50" y="558"/>
      <point x="124" y="713"/>
      <point x="263" y="826"/>
      <point x="362" y="858" type="qcurve"/>
      <point x="340" y="872"/>
      <point x="252" y="938"/>
      <point x="178" y="1054"/>
      <point x="178" y="1142" type="qcurve"/>
      <point x="178" y="1252"/>
      <point x="310" y="1398"/>
      <point x="529" y="1470"/>
      <point x="660" y="1470" type="qcurve"/>
      <point x="749" y="1470"/>
      <point x="951" y="1433"/>
      <point x="1066" y="1380" type="qcurve"/>
      <point x="976" y="1076" type="line"/>
      <point x="877" y="1136"/>
      <point x="736" y="1160"/>
      <point x="704" y="1160" type="qcurve"/>
      <point x="629" y="1160"/>
      <point x="558" y="1124"/>
      <point x="558" y="1092" type="qcurve"/>
      <point x="558" y="1063"/>
      <point x="615" y="1021"/>
      <point x="726" y="974"/>
      <point x="806" y="936" type="qcurve"/>
      <point x="910" y="887"/>
      <point x="1075" y="763"/>
      <point x="1170" y="588"/>
      <point x="1170" y="464" type="qcurve"/>
      <point x="1170" y="330"/>
      <point x="1038" y="105"/>
      <point x="788" y="-30"/>
    </contour>
    <contour>
      <point x="610" y="302" type="qcurve"/>
      <point x="662" y="302"/>
      <point x="741" y="346"/>
      <point x="786" y="422"/>
      <point x="786" y="470" type="qcurve"/>
      <point x="786" y="517"/>
      <point x="742" y="592"/>
      <point x="663" y="646"/>
      <point x="610" y="662" type="qcurve"/>
      <point x="557" y="646"/>
      <point x="478" y="592"/>
      <point x="434" y="517"/>
      <point x="434" y="470" type="qcurve"/>
      <point x="434" y="398"/>
      <point x="532" y="302"/>
    </contour>
  </outline>
</glyph>
<glyph name="epsilon" format="2">
  <advance width="1095"/>
  <unicode hex="03B5"/>
  <anchor x="566" y="1040" name="top"/>
  <outline>
    <contour>
      <point x="578" y="-30" type="qcurve"/>
      <point x="341" y="-30"/>
      <point x="70" y="143"/>
      <point x="70" y="300" type="qcurve"/>
      <point x="70" y="384"/>
      <point x="172" y="513"/>
      <point x="268" y="546" type="qcurve"/>
      <point x="181" y="580"/>
      <point x="90" y="694"/>
      <point x="90" y="776" type="qcurve"/>
      <point x="90" y="864"/>
      <point x="210" y="996"/>
      <point x="431" y="1070"/>
      <point x="580" y="1070" type="qcurve"/>
      <point x="722" y="1070"/>
      <point x="941" y="1021"/>
      <point x="1050" y="964" type="qcurve"/>
      <point x="922" y="684" type="line"/>
      <point x="863" y="727"/>
      <point x="712" y="772"/>
      <point x="630" y="772" type="qcurve"/>
      <point x="577" y="772"/>
      <point x="503" y="756"/>
      <point x="464" y="726"/>
      <point x="464" y="703" type="qcurve"/>
      <point x="464" y="676"/>
      <point x="518" y="652"/>
      <point x="576" y="652" type="qcurve"/>
      <point x="750" y="652" type="line"/>
      <point x="750" y="404" type="line"/>
      <point x="592" y="404" type="line"/>
      <point x="550" y="404"/>
      <point x="494" y="393"/>
      <point x="466" y="368"/>
      <point x="466" y="346" type="qcurve"/>
      <point x="466" y="309"/>
      <point x="549" y="276"/>
      <point x="626" y="276" type="qcurve"/>
      <point x="714" y="276"/>
      <point x="877" y="317"/>
      <point x="956" y="360" type="qcurve"/>
      <point x="1068" y="92" type="line"/>
      <point x="974" y="32"/>
      <point x="730" y="-30"/>
    </contour>
  </outline>
</glyph>
<glyph name="eta" format="2">
  <advance width="1366"/>
  <unicode hex="03B7"/>
  <anchor x="684" y="1040" name="top"/>
  <outline>
    <contour>
      <point x="848" y="-420" type="line"/>
      <point x="848" y="536" type="line"/>
      <point x="848" y="619"/>
      <point x="771" y="710"/>
      <point x="690" y="710" type="qcurve"/>
      <point x="638" y="710"/>
      <point x="566" y="666"/>
      <point x="528" y="587"/>
      <point x="528" y="536" type="qcurve"/>
      <point x="528" y="0" type="line"/>
      <point x="128" y="0" type="line"/>
      <point x="128" y="1040" type="line"/>
      <point x="528" y="1040" type="line"/>
      <point x="528" y="944" type="line"/>
      <point x="582" y="1009"/>
      <point x="731" y="1070"/>
      <point x="816" y="1070" type="qcurve"/>
      <point x="966" y="1070"/>
      <point x="1157" y="954"/>
      <point x="1248" y="768"/>
      <point x="1248" y="662" type="qcurve"/>
      <point x="1248" y="-420" type="line"/>
    </contour>
  </outline>
</glyph>
<glyph name="iota" format="2">
  <advance width="769"/>
  <unicode hex="03B9"/>
  <anchor x="318" y="1040" name="top"/>
  <outline>
    <contour>
      <point x="502" y="-28" type="qcurve"/>
      <point x="386" y="-28"/>
      <point x="213" y="59"/>
      <point x="118" y="241"/>
      <point x="118" y="384" type="qcurve"/>
      <point x="118" y="1040" type="line"/>
      <point x="518" y="1040" type="line"/>
      <point x="518" y="426" type="line"/>
      <point x="518" y="360"/>
      <point x="566" y="306"/>
      <point x="608" y="306" type="qcurve"/>
      <point x="626" y="306"/>
      <point x="668" y="315"/>
      <point x="690" y="322" type="qcurve"/>
      <point x="738" y="8" type="line"/>
      <point x="674" y="-10"/>
      <point x="556" y="-28"/>
    </contour>
  </outline>
</glyph>
<glyph name="kappa" format="2">
  <advance width="1264"/>
  <unicode hex="03BA"/>
  <outline>
    <contour>
      <point x="128" y="0" type="line"/>
      <point x="128" y="1040" type="line"/>
      <point x="528" y="1040" type="line"/>
      <point x="528" y="756" type="line"/>
      <point x="706" y="914" type="line"/>
      <point x="776" y="977"/>
      <point x="911" y="1052"/>
      <point x="1057" y="1077"/>
      <point x="1144" y="1066" type="qcurve"/>
      <point x="1170" y="730" type="line"/>
      <point x="1113" y="731"/>
      <point x="1025" y="711"/>
      <point x="954" y="674"/>
      <point x="922" y="650" type="qcurve"/>
      <point x="878" y="616" type="line"/>
      <point x="1220" y="0" type="line"/>
      <point x="780" y="0" type="line"/>
      <point x="600" y="382" type="line"/>
      <point x="528" y="320" type="line"/>
      <point x="528" y="0" type="line"/>
    </contour>
  </outline>
</glyph>
<glyph name="lambda" format="2">
  <advance width="1266"/>
  <unicode hex="03BB"/>
  <outline>
    <contour>
      <point x="10" y="0" type="line"/>
      <point x="442" y="1040" type="line"/>
      <point x="438" y="1056" type="line"/>
      <point x="428" y="1100"/>
      <point x="351" y="1132"/>
      <point x="304" y="1132" type="qcurve"/>
      <point x="268" y="1132"/>
      <point x="182" y="1119"/>
      <point x="134" y="1110" type="qcurve"/>
      <point x="76" y="1430" type="line"/>
      <point x="141" y="1450"/>
      <point x="297" y="1470"/>
      <point x="360" y="1470" type="qcurve"/>
      <point x="472" y="1470"/>
      <point x="649" y="1407"/>
      <point x="785" y="1254"/>
      <point x="836" y="1118" type="qcurve"/>
      <point x="1256" y="0" type="line"/>
      <point x="822" y="0" type="line"/>
      <point x="630" y="638" type="line"/>
      <point x="430" y="0" type="line"/>
    </contour>
  </outline>
</glyph>
<glyph name="mu-grek" format="2">
  <advance width="1340"/>
  <unicode hex="03BC"/>
  <outline>
    <contour>
      <point x="128" y="-420" type="line"/>
      <point x="128" y="1040" type="line"/>
      <point x="528" y="1040" type="line"/>
      <point x="528" y="482" type="line"/>
      <point x="528" y="415"/>
      <point x="603" y="330"/>
      <point x="670" y="330" type="qcurve"/>
      <point x="715" y="330"/>
      <point x="779" y="369"/>
      <point x="812" y="437"/>
      <point x="812" y="482" type="qcurve"/>
      <point x="812" y="1040" type="line"/>
      <point x="1212" y="1040" type="line"/>
      <point x="1212" y="0" type="line"/>
      <point x="872" y="0" type="line"/>
      <point x="872" y="102" type="line"/>
      <point x="827" y="32"/>
      <point x="703" y="-30"/>
      <point x="634" y="-30" type="qcurve"/>
      <point x="601" y="-30"/>
      <point x="531" y="-16"/>
      <point x="496" y="-4" type="qcurve"/>
      <point x="496" y="-420" type="line"/>
    </contour>
  </outline>
</glyph>
<glyph name="xi" format="2">
  <advance width="1070"/>
  <unicode hex="03BE"/>
  <outline>
    <contour>
      <point x="955" y="-450" type="qcurve"/>
      <point x="601" y="-406" type="line"/>
      <point x="641" y="-341"/>
      <point x="681" y="-239"/>
      <point x="681" y="-204" type="qcurve"/>
      <point x="681" y="-144"/>
      <point x="590" y="-59"/>
      <point x="446" y="13"/>
      <point x="285" y="92"/>
      <point x="141" y="197"/>
      <point x="50" y="348"/>
      <point x="50" y="456" type="qcurve"/>
      <point x="50" y="563"/>
      <point x="180" y="729"/>
      <point x="299" y="776" type="qcurve"/>
      <point x="103" y="876"/>
      <point x="103" y="1085" type="qcurve"/>
      <point x="103" y="1204"/>
      <point x="232" y="1376"/>
      <point x="468" y="1470"/>
      <point x="631" y="1470" type="qcurve"/>
      <point x="767" y="1470"/>
      <point x="983" y="1420"/>
      <point x="1085" y="1364" type="qcurve"/>
      <point x="976" y="1047" type="line"/>
      <point x="916" y="1093"/>
      <point x="764" y="1140"/>
      <point x="678" y="1140" type="qcurve"/>
      <point x="579" y="1140"/>
      <point x="478" y="1076"/>
      <point x="478" y="1013" type="qcurve"/>
      <point x="478" y="954"/>
      <point x="552" y="893"/>
      <point x="624" y="893" type="qcurve"/>
      <point x="904" y="893" type="line"/>
      <point x="904" y="568" type="line"/>
      <point x="609" y="568" type="line"/>
      <point x="527" y="568"/>
      <point x="447" y="518"/>
      <point x="447" y="468" type="qcurve"/>
      <point x="447" y="423"/>
      <point x="535" y="353"/>
      <point x="674" y="289"/>
      <point x="830" y="217"/>
      <point x="969" y="122"/>
      <point x="1057" y="-8"/>
      <point x="1057" y="-100" type="qcurve"/>
      <point x="1057" y="-149"/>
      <point x="1033" y="-265"/>
      <point x="987" y="-389"/>
    </contour>
  </outline>
</glyph>
<glyph name="omega" format="2">
  <advance width="1718"/>
  <unicode hex="03C9"/>
  <anchor x="859" y="1040" name="top"/>
  <anchor x="859" y="0" name="bottom"/>
  <outline>
    <contour>
      <point x="533" y="-30" type="qcurve"/>
      <point x="390" y="-30"/>
      <point x="189" y="96"/>
      <point x="85" y="344"/>
      <point x="85" y="526" type="qcurve"/>
      <point x="85" y="621"/>
      <point x="124" y="812"/>
      <point x="197" y="989"/>
      <point x="248" y="1060" type="qcurve"/>
      <point x="592" y="940" type="line"/>
      <point x="565" y="900"/>
      <point x="523" y="809"/>
      <point x="494" y="711"/>
      <point x="479" y="608"/>
      <point x="479" y="555" type="qcurve"/>
      <point x="479" y="448"/>
      <point x="537" y="330"/>
      <point x="589" y="330" type="qcurve"/>
      <point x="640" y="330"/>
      <point x="685" y="400"/>
      <point x="685" y="500" type="qcurve"/>
      <point x="685" y="820" type="line"/>
      <point x="1033" y="820" type="line"/>
      <point x="1033" y="500" type="line"/>
      <point x="1033" y="400"/>
      <point x="1078" y="330"/>
      <point x="1129" y="330" type="qcurve"/>
      <point x="1155" y="330"/>
      <point x="1196" y="360"/>
      <point x="1224" y="418"/>
      <point x="1239" y="501"/>
      <point x="1239" y="555" type="qcurve"/>
      <point x="1239" y="626"/>
      <point x="1213" y="761"/>
      <point x="1163" y="886"/>
      <point x="1126" y="940" type="qcurve"/>
      <point x="1470" y="1060" type="line"/>
      <point x="1547" y="953"/>
      <point x="1633" y="688"/>
      <point x="1633" y="546" type="qcurve"/>
      <point x="1633" y="409"/>
      <point x="1574" y="195"/>
      <point x="1459" y="47"/>
      <point x="1293" y="-30"/>
      <point x="1185" y="-30" type="qcurve"/>
      <point x="1091" y="-30"/>
      <point x="921" y="57"/>
      <point x="859" y="136" type="qcurve"/>
      <point x="797" y="57"/>
      <point x="628" y="-30"/>
    </contour>
  </outline>
</glyph>
<glyph name="kaisymbol" format="2">
  <advance width="1264"/>
  <unicode hex="03D7"/>
  <outline>
    <contour>
      <point x="546" y="-430" type="qcurve"/>
      <point x="546" y="-110" type="line"/>
      <point x="612" y="-112"/>
      <point x="691" y="-98"/>
      <point x="752" y="-59"/>
      <point x="790" y="-22" type="qcurve"/>
      <point x="600" y="382" type="line"/>
      <point x="528" y="320" type="line"/>
      <point x="528" y="0" type="line"/>
      <point x="128" y="0" type="line"/>
      <point x="128" y="1040" type="line"/>
      <point x="528" y="1040" type="line"/>
      <point x="528" y="756" type="line"/>
      <point x="706" y="914" type="line"/>
      <point x="776" y="977"/>
      <point x="911" y="1052"/>
      <point x="1057" y="1077"/>
      <point x="1144" y="1066" type="qcurve"/>
      <point x="1170" y="730" type="line"/>
      <point x="1113" y="731"/>
      <point x="1025" y="711"/>
      <point x="954" y="674"/>
      <point x="922" y="650" type="qcurve"/>
      <point x="878" y="616" type="line"/>
      <point x="1257" y="-64" type="line"/>
      <point x="1166" y="-190"/>
      <point x="1010" y="-351"/>
      <point x="852" y="-432"/>
      <point x="667" y="-448"/>
    </contour>
  </outline>
</glyph>
<glyph name="Djecyr" format="2">
  <advance width="1678"/>
  <unicode hex="0402"/>
  <outline>
    <contour>
      <point x="390" y="0" type="line"/>
      <point x="390" y="1040" type="line"/>
      <point x="30" y="1040" type="line"/>
      <point x="30" y="1400" type="line"/>
      <point x="1352" y="1400" type="line"/>
      <point x="1352" y="1040" type="line"/>
      <point x="796" y="1040" type="line"/>
      <point x="796" y="0" type="line"/>
    </contour>
    <contour>
      <point x="1210" y="-334" type="qcurve"/>
      <point x="1010" y="-32" type="line"/>
      <point x="1081" y="10"/>
      <point x="1174" y="122"/>
      <point x="1220" y="251"/>
      <point x="1220" y="318" type="qcurve"/>
      <point x="1220" y="386"/>
      <point x="1150" y="500"/>
      <point x="1023" y="568"/>
      <point x="938" y="568" type="qcurve"/>
      <point x="878" y="568"/>
      <point x="782" y="550"/>
      <point x="726" y="532" type="qcurve"/>
      <point x="722" y="856" type="line"/>
      <point x="802" y="880"/>
      <point x="955" y="900"/>
      <point x="1028" y="900" type="qcurve"/>
      <point x="1222" y="900"/>
      <point x="1490" y="752"/>
      <point x="1628" y="502"/>
      <point x="1628" y="350" type="qcurve"/>
      <point x="1628" y="219"/>
      <point x="1537" y="-40"/>
      <point x="1351" y="-261"/>
    </contour>
  </outline>
</glyph>
<glyph name="Eukrcyr" format="2">
  <advance width="1406"/>
  <unicode hex="0404"/>
  <outline>
    <contour>
      <point x="812" y="-30" type="qcurve"/>
      <point x="649" y="-30"/>
      <point x="377" y="70"/>
      <point x="178" y="259"/>
      <point x="70" y="527"/>
      <point x="70" y="694" type="qcurve"/>
      <point x="70" y="857"/>
      <point x="180" y="1127"/>
      <point x="381" y="1323"/>
      <point x="655" y="1430"/>
      <point x="818" y="1430" type="qcurve"/>
      <point x="1004" y="1430"/>
      <point x="1244" y="1336"/>
      <point x="1346" y="1250" type="qcurve"/>
      <point x="1158" y="934" type="line"/>
      <point x="1101" y="1000"/>
      <point x="932" y="1066"/>
      <point x="828" y="1066" type="qcurve"/>
      <point x="737" y="1066"/>
      <point x="598" y="1015"/>
      <point x="503" y="919"/>
      <point x="454" y="784"/>
      <point x="454" y="700" type="qcurve"/>
      <point x="454" y="586"/>
      <point x="543" y="422"/>
      <point x="712" y="334"/>
      <point x="832" y="334" type="qcurve"/>
      <point x="924" y="334"/>
      <point x="1117" y="393"/>
      <point x="1202" y="456" type="qcurve"/>
      <point x="1376" y="138" type="line"/>
      <point x="1282" y="66"/>
      <point x="1004" y="-30"/>
    </contour>
    <contour>
      <point x="344" y="562" type="line"/>
      <point x="344" y="864" type="line"/>
      <point x="1038" y="864" type="line"/>
      <point x="1038" y="562" type="line"/>
    </contour>
  </outline>
</glyph>
<glyph name="Njecyr" format="2">
  <advance width="2184"/>
  <unicode hex="040A"/>
  <outline>
    <contour>
      <point x="988" y="0" type="line"/>
      <point x="988" y="1400" type="line"/>
      <point x="1392" y="1400" type="line"/>
      <point x="1392" y="294" type="line"/>
      <point x="1560" y="294" type="line"/>
      <point x="1644" y="294"/>
      <point x="1740" y="353"/>
      <point x="1740" y="428" type="qcurve"/>
      <point x="1740" y="506"/>
      <point x="1640" y="564"/>
      <point x="1562" y="564" type="qcurve"/>
      <point x="472" y="564" type="line"/>
      <point x="472" y="908" type="line"/>
      <point x="1586" y="908" type="line"/>
      <point x="1746" y="908"/>
      <point x="1998" y="803"/>
      <point x="2144" y="604"/>
      <point x="2144" y="464" type="qcurve"/>
      <point x="2144" y="316"/>
      <point x="2010" y="109"/>
      <point x="1756" y="0"/>
      <point x="1576" y="0" type="qcurve"/>
    </contour>
    <contour>
      <point x="156" y="0" type="line"/>
      <point x="156" y="1400" type="line"/>
      <point x="560" y="1400" type="line"/>
      <point x="560" y="0" type="line"/>
    </contour>
  </outline>
</glyph>
<glyph name="Dzhecyr" format="2">
  <advance width="1568"/>
  <unicode hex="040F"/>
  <anchor x="794" y="0" name="bottom"/>
  <outline>
    <contour>
      <point x="156" y="0" type="line"/>
      <point x="156" y="1400" type="line"/>
      <point x="560" y="1400" type="line"/>
      <point x="560" y="368" type="line"/>
      <point x="1008" y="368" type="line"/>
      <point x="1008" y="1400" type="line"/>
      <point x="1412" y="1400" type="line"/>
      <point x="1412" y="0" type="line"/>
    </contour>
    <contour>
      <point x="602" y="-350" type="line"/>
      <point x="602" y="288" type="line"/>
      <point x="986" y="288" type="line"/>
      <point x="986" y="-350" type="line"/>
    </contour>
  </outline>
</glyph>
<glyph name="Ucyr" format="2">
  <advance width="1392"/>
  <unicode hex="0423"/>
  <anchor x="742" y="1400" name="top"/>
  <outline>
    <contour>
      <point x="232" y="-30" type="qcurve"/>
      <point x="96" y="336" type="line"/>
      <point x="241" y="359"/>
      <point x="447" y="460"/>
      <point x="601" y="642"/>
      <point x="668" y="786" type="qcurve"/>
      <point x="952" y="1400" type="line"/>
      <point x="1420" y="1400" type="line"/>
      <point x="1018" y="592" type="line"/>
      <point x="936" y="427"/>
      <point x="765" y="198"/>
      <point x="577" y="54"/>
      <point x="360" y="-19"/>
    </contour>
    <contour>
      <point x="588" y="354" type="line"/>
      <point x="44" y="1400" type="line"/>
      <point x="532" y="1400" type="line"/>
      <point x="862" y="688" type="line"/>
    </contour>
  </outline>
</glyph>
<glyph name="Efcyr" format="2">
  <advance width="1840"/>
  <unicode hex="0424"/>
  <outline>
    <contour>
      <point x="720" y="-72" type="line"/>
      <point x="720" y="98" type="line"/>
      <point x="526" y="107"/>
      <point x="228" y="259"/>
      <point x="60" y="528"/>
      <point x="60" y="712" type="qcurve"/>
      <point x="60" y="896"/>
      <point x="228" y="1165"/>
      <point x="526" y="1317"/>
      <point x="720" y="1326" type="qcurve"/>
      <point x="720" y="1488" type="line"/>
      <point x="1120" y="1488" type="line"/>
      <point x="1120" y="1326" type="line"/>
      <point x="1314" y="1317"/>
      <point x="1612" y="1165"/>
      <point x="1780" y="896"/>
      <point x="1780" y="712" type="qcurve"/>
      <point x="1780" y="528"/>
      <point x="1612" y="259"/>
      <point x="1314" y="107"/>
      <point x="1120" y="98" type="qcurve"/>
      <point x="1120" y="-72" type="line"/>
    </contour>
    <contour>
      <point x="720" y="428" type="qcurve"/>
      <point x="720" y="996" type="line"/>
      <point x="639" y="989"/>
      <point x="525" y="919"/>
      <point x="464" y="797"/>
      <point x="464" y="712" type="qcurve"/>
      <point x="464" y="627"/>
      <point x="525" y="505"/>
      <point x="639" y="435"/>
    </contour>
    <contour>
      <point x="1120" y="428" type="line"/>
      <point x="1201" y="435"/>
      <point x="1316" y="505"/>
      <point x="1376" y="627"/>
      <point x="1376" y="712" type="qcurve"/>
      <point x="1376" y="797"/>
      <point x="1316" y="919"/>
      <point x="1201" y="989"/>
      <point x="1120" y="996" type="qcurve"/>
    </contour>
  </outline>
</glyph>
<glyph name="Hardcyr" format="2">
  <advance width="1586"/>
  <unicode hex="042A"/>
  <anchor x="592" y="1400" name="top"/>
  <outline>
    <contour>
      <point x="390" y="1032" type="line"/>
      <point x="30" y="1032" type="line"/>
      <point x="30" y="1400" type="line"/>
      <point x="794" y="1400" type="line"/>
    </contour>
    <contour>
      <point x="390" y="0" type="line"/>
      <point x="390" y="1400" type="line"/>
      <point x="794" y="1400" type="line"/>
      <point x="794" y="968" type="line"/>
      <point x="988" y="968" type="line"/>
      <point x="1148" y="968"/>
      <point x="1400" y="854"/>
      <point x="1546" y="637"/>
      <point x="1546" y="484" type="qcurve"/>
      <point x="1546" y="369"/>
      <point x="1470" y="189"/>
      <point x="1324" y="64"/>
      <point x="1113" y="0"/>
      <point x="978" y="0" type="qcurve"/>
    </contour>
    <contour>
      <point x="794" y="334" type="line"/>
      <point x="962" y="334" type="line"/>
      <point x="1046" y="334"/>
      <point x="1142" y="397"/>
      <point x="1142" y="478" type="qcurve"/>
      <point x="1142" y="562"/>
      <point x="1042" y="624"/>
      <point x="964" y="624" type="qcurve"/>
      <point x="794" y="624" type="line"/>
    </contour>
  </outline>
</glyph>
<glyph name="Ylongcyr" format="2">
  <advance width="2038"/>
  <unicode hex="042B"/>
  <anchor x="1006" y="1400" name="top"/>
  <anchor x="1006" y="0" name="bottom"/>
  <outline>
    <contour>
      <point x="156" y="0" type="line"/>
      <point x="156" y="1400" type="line"/>
      <point x="560" y="1400" type="line"/>
      <point x="560" y="968" type="line"/>
      <point x="744" y="968" type="line"/>
      <point x="904" y="968"/>
      <point x="1156" y="854"/>
      <point x="1302" y="637"/>
      <point x="1302" y="484" type="qcurve"/>
      <point x="1302" y="369"/>
      <point x="1226" y="189"/>
      <point x="1080" y="64"/>
      <point x="869" y="0"/>
      <point x="734" y="0" type="qcurve"/>
    </contour>
    <contour>
      <point x="560" y="334" type="line"/>
      <point x="718" y="334" type="line"/>
      <point x="802" y="334"/>
      <point x="898" y="397"/>
      <point x="898" y="478" type="qcurve"/>
      <point x="898" y="562"/>
      <point x="798" y="624"/>
      <point x="720" y="624" type="qcurve"/>
      <point x="560" y="624" type="line"/>
    </contour>
    <contour>
      <point x="1478" y="0" type="line"/>
      <point x="1478" y="1400" type="line"/>
      <point x="1882" y="1400" type="line"/>
      <point x="1882" y="0" type="line"/>
    </contour>
  </outline>
</glyph>
<glyph name="becyr" format="2">
  <advance width="1293"/>
  <unicode hex="0431"/>
  <outline>
    <contour>
      <point x="669" y="-30" type="qcurve"/>
      <point x="537" y="-30"/>
      <point x="319" y="63"/>
      <point x="161" y="235"/>
      <point x="75" y="478"/>
      <point x="75" y="628" type="qcurve"/>
      <point x="75" y="795"/>
      <point x="139" y="1055"/>
      <point x="272" y="1244"/>
      <point x="479" y="1362"/>
      <point x="621" y="1386" type="qcurve"/>
      <point x="1119" y="1470" type="line"/>
      <point x="1175" y="1148" type="line"/>
      <point x="689" y="1076" type="line"/>
      <point x="606" y="1063"/>
      <point x="504" y="1013"/>
      <point x="451" y="925"/>
      <point x="443" y="854" type="qcurve"/>
      <point x="506" y="896"/>
      <point x="658" y="942"/>
      <point x="745" y="942" type="qcurve"/>
      <point x="887" y="942"/>
      <point x="1107" y="820"/>
      <point x="1233" y="613"/>
      <point x="1233" y="486" type="qcurve"/>
      <point x="1233" y="378"/>
      <point x="1153" y="191"/>
      <point x="1004" y="49"/>
      <point x="797" y="-30"/>
    </contour>
    <contour>
      <point x="667" y="310" type="qcurve"/>
      <point x="715" y="310"/>
      <point x="796" y="351"/>
      <point x="845" y="427"/>
      <point x="845" y="480" type="qcurve"/>
      <point x="845" y="533"/>
      <point x="797" y="609"/>
      <point x="716" y="650"/>
      <point x="667" y="650" type="qcurve"/>
      <point x="617" y="650"/>
      <point x="535" y="609"/>
      <point x="487" y="533"/>
      <point x="487" y="480" type="qcurve"/>
      <point x="487" y="427"/>
      <point x="536" y="351"/>
      <point x="618" y="310"/>
    </contour>
  </outline>
</glyph>
<glyph name="vecyr" format="2">
  <advance width="1213"/>
  <unicode hex="0432"/>
  <outline>
    <contour>
      <point x="128" y="0" type="line"/>
      <point x="128" y="1040" type="line"/>
      <point x="706" y="1040" type="line"/>
      <point x="897" y="1040"/>
      <point x="1104" y="909"/>
      <point x="1104" y="774" type="qcurve"/>
      <point x="1104" y="694"/>
      <point x="1019" y="590"/>
      <point x="880" y="533"/>
      <point x="798" y="524" type="qcurve"/>
      <point x="792" y="614" type="line"/>
      <point x="953" y="605"/>
      <point x="1150" y="454"/>
      <point x="1150" y="326" type="qcurve"/>
      <point x="1150" y="224"/>
      <point x="1050" y="78"/>
      <point x="855" y="0"/>
      <point x="712" y="0" type="qcurve"/>
    </contour>
    <contour>
      <point x="508" y="260" type="line"/>
      <point x="660" y="260" type="line"/>
      <point x="710" y="260"/>
      <point x="760" y="299"/>
      <point x="760" y="332" type="qcurve"/>
      <point x="760" y="362"/>
      <point x="713" y="400"/>
      <point x="660" y="400" type="qcurve"/>
      <point x="476" y="400" type="line"/>
      <point x="476" y="644" type="line"/>
      <point x="634" y="644" type="line"/>
      <point x="682" y="644"/>
      <point x="734" y="677"/>
      <point x="734" y="710" type="qcurve"/>
      <point x="734" y="743"/>
      <point x="679" y="780"/>
      <point x="634" y="780" type="qcurve"/>
      <point x="508" y="780" type="line"/>
    </contour>
  </outline>
</glyph>
<glyph name="zecyr" format="2">
  <advance width="1095"/>
  <unicode hex="0437"/>
  <anchor x="517" y="1040" name="top"/>
  <anchor x="537" y="0" name="bottom"/>
  <outline>
    <contour>
      <point x="511" y="-30" type="qcurve"/>
      <point x="422" y="-30"/>
      <point x="249" y="-2"/>
      <point x="96" y="60"/>
      <point x="37" y="110" type="qcurve"/>
      <point x="183" y="354" type="line"/>
      <point x="237" y="303"/>
      <point x="402" y="252"/>
      <point x="493" y="252" type="qcurve"/>
      <point x="576" y="252"/>
      <point x="663" y="291"/>
      <point x="663" y="334" type="qcurve"/>
      <point x="663" y="372"/>
      <point x="585" y="394"/>
      <point x="501" y="394" type="qcurve"/>
      <point x="311" y="394" type="line"/>
      <point x="311" y="662" type="line"/>
      <point x="489" y="662" type="line"/>
      <point x="569" y="662"/>
      <point x="629" y="691"/>
      <point x="629" y="722" type="qcurve"/>
      <point x="629" y="744"/>
      <point x="592" y="771"/>
      <point x="522" y="784"/>
      <point x="473" y="784" type="qcurve"/>
      <point x="391" y="784"/>
      <point x="240" y="735"/>
      <point x="187" y="684" type="qcurve"/>
      <point x="57" y="938" type="line"/>
      <point x="155" y="1012"/>
      <point x="397" y="1076"/>
      <point x="511" y="1076" type="qcurve"/>
      <point x="661" y="1076"/>
      <point x="870" y="1007"/>
      <point x="979" y="876"/>
      <point x="979" y="784" type="qcurve"/>
      <point x="979" y="718"/>
      <point x="899" y="599"/>
      <point x="821" y="576" type="qcurve"/>
      <point x="922" y="545"/>
      <point x="1025" y="424"/>
      <point x="1025" y="326" type="qcurve"/>
      <point x="1025" y="222"/>
      <point x="903" y="61"/>
      <point x="673" y="-30"/>
    </contour>
  </outline>
</glyph>
<glyph name="checyr" format="2">
  <advance width="1232"/>
  <unicode hex="0447"/>
  <anchor x="570" y="1040" name="top"/>
  <outline>
    <contour>
      <point x="704" y="0" type="line"/>
      <point x="704" y="336" type="line"/>
      <point x="641" y="320"/>
      <point x="533" y="302"/>
      <point x="480" y="302" type="qcurve"/>
      <point x="354" y="302"/>
      <point x="154" y="388"/>
      <point x="38" y="576"/>
      <point x="38" y="730" type="qcurve"/>
      <point x="38" y="1040" type="line"/>
      <point x="438" y="1040" type="line"/>
      <point x="438" y="782" type="line"/>
      <point x="438" y="706"/>
      <point x="498" y="626"/>
      <point x="570" y="626" type="qcurve"/>
      <point x="615" y="626"/>
      <point x="676" y="634"/>
      <point x="704" y="638" type="qcurve"/>
      <point x="704" y="1040" type="line"/>
      <point x="1104" y="1040" type="line"/>
      <point x="1104" y="0" type="line"/>
    </contour>
  </outline>
</glyph>
<glyph name="ylongcyr" format="2">
  <advance width="1796"/>
  <unicode hex="044B"/>
  <anchor x="888" y="1040" name="top"/>
  <anchor x="918" y="0" name="bottom"/>
  <outline>
    <contour>
      <point x="128" y="0" type="line"/>
      <point x="128" y="1040" type="line"/>
      <point x="528" y="1040" type="line"/>
      <point x="528" y="272" type="line"/>
      <point x="618" y="272" type="line"/>
      <point x="674" y="272"/>
      <point x="740" y="331"/>
      <point x="740" y="380" type="qcurve"/>
      <point x="740" y="428"/>
      <point x="682" y="490"/>
      <point x="634" y="490" type="qcurve"/>
      <point x="492" y="490" type="line"/>
      <point x="492" y="758" type="line"/>
      <point x="668" y="758" type="line"/>
      <point x="892" y="758"/>
      <point x="1148" y="571"/>
      <point x="1148" y="380" type="qcurve"/>
      <point x="1148" y="262"/>
      <point x="1031" y="92"/>
      <point x="816" y="0"/>
      <point x="668" y="0" type="qcurve"/>
    </contour>
    <contour>
      <point x="1268" y="0" type="line"/>
      <point x="1268" y="1040" type="line"/>
      <point x="1668" y="1040" type="line"/>
      <point x="1668" y="0" type="line"/>
    </contour>
  </outline>
</glyph>
<glyph name="ereversedcyr" format="2">
  <advance width="1109"/>
  <unicode hex="044D"/>
  <anchor x="497" y="1040" name="top"/>
  <anchor x="497" y="0" name="bottom"/>
  <outline>
    <contour>
      <point x="481" y="-30" type="qcurve"/>
      <point x="391" y="-30"/>
      <point x="221" y="3"/>
      <point x="77" y="66"/>
      <point x="27" y="110" type="qcurve"/>
      <point x="173" y="364" type="line"/>
      <point x="227" y="313"/>
      <point x="371" y="262"/>
      <point x="443" y="262" type="qcurve"/>
      <point x="536" y="262"/>
      <point x="652" y="310"/>
      <point x="705" y="424"/>
      <point x="705" y="524" type="qcurve"/>
      <point x="705" y="665"/>
      <point x="580" y="778"/>
      <point x="445" y="778" type="qcurve"/>
      <point x="364" y="778"/>
      <point x="227" y="722"/>
      <point x="177" y="678" type="qcurve"/>
      <point x="47" y="932" type="line"/>
      <point x="131" y="995"/>
      <point x="365" y="1070"/>
      <point x="497" y="1070" type="qcurve"/>
      <point x="671" y="1070"/>
      <point x="923" y="935"/>
      <point x="1059" y="689"/>
      <point x="1059" y="524" type="qcurve"/>
      <point x="1059" y="400"/>
      <point x="979" y="197"/>
      <point x="829" y="50"/>
      <point x="615" y="-30"/>
    </contour>
    <contour>
      <point x="301" y="396" type="line"/>
      <point x="301" y="664" type="line"/>
      <point x="829" y="664" type="line"/>
      <point x="829" y="396" type="line"/>
    </contour>
  </outline>
</glyph>
<glyph name="ljecyr" format="2">
  <advance width="1878"/>
  <unicode hex="0459"/>
  <outline>
    <contour>
      <point x="152" y="-30" type="qcurve"/>
      <point x="26" y="332" type="line"/>
      <point x="129" y="357"/>
      <point x="222" y="444"/>
      <point x="246" y="588"/>
      <point x="246" y="698" type="qcurve"/>
      <point x="246" y="1040" type="line"/>
      <point x="1188" y="1040" type="line"/>
      <point x="788" y="728" type="line"/>
      <point x="606" y="728" type="line"/>
      <point x="606" y="698" type="line"/>
      <point x="606" y="545"/>
      <point x="565" y="300"/>
      <point x="464" y="117"/>
      <point x="288" y="-2"/>
    </contour>
    <contour>
      <point x="788" y="0" type="line"/>
      <point x="788" y="1040" type="line"/>
      <point x="1188" y="1040" type="line"/>
      <point x="1188" y="272" type="line"/>
      <point x="1288" y="272" type="line"/>
      <point x="1344" y="272"/>
      <point x="1410" y="331"/>
      <point x="1410" y="380" type="qcurve"/>
      <point x="1410" y="428"/>
      <point x="1352" y="490"/>
      <point x="1304" y="490" type="qcurve"/>
      <point x="1152" y="490" type="line"/>
      <point x="1152" y="758" type="line"/>
      <point x="1338" y="758" type="line"/>
      <point x="1562" y="758"/>
      <point x="1818" y="571"/>
      <point x="1818" y="380" type="qcurve"/>
      <point x="1818" y="262"/>
      <point x="1701" y="92"/>
      <point x="1486" y="0"/>
      <point x="1338" y="0" type="qcurve"/>
    </contour>
  </outline>
</glyph>
<glyph name="njecyr" format="2">
  <advance width="1908"/>
  <unicode hex="045A"/>
  <outline>
    <contour>
      <point x="128" y="0" type="line"/>
      <point x="128" y="1040" type="line"/>
      <point x="528" y="1040" type="line"/>
      <point x="528" y="0" type="line"/>
    </contour>
    <contour>
      <point x="828" y="0" type="line"/>
      <point x="828" y="1040" type="line"/>
      <point x="1228" y="1040" type="line"/>
      <point x="1228" y="268" type="line"/>
      <point x="1328" y="268" type="line"/>
      <point x="1379" y="268"/>
      <point x="1440" y="317"/>
      <point x="1440" y="354" type="qcurve"/>
      <point x="1440" y="389"/>
      <point x="1388" y="440"/>
      <point x="1344" y="440" type="qcurve"/>
      <point x="1086" y="440" type="line"/>
      <point x="970" y="420" type="line"/>
      <point x="394" y="420" type="line"/>
      <point x="394" y="704" type="line"/>
      <point x="1378" y="704" type="line"/>
      <point x="1597" y="704"/>
      <point x="1848" y="531"/>
      <point x="1848" y="354" type="qcurve"/>
      <point x="1848" y="244"/>
      <point x="1733" y="85"/>
      <point x="1522" y="0"/>
      <point x="1378" y="0" type="qcurve"/>
    </contour>
  </outline>
</glyph>
<glyph name="Yatcyr" format="2">
  <advance width="1552"/>
  <unicode hex="0462"/>
  <outline>
    <contour>
      <point x="356" y="0" type="line"/>
      <point x="356" y="1440" type="line"/>
      <point x="760" y="1440" type="line"/>
      <point x="760" y="294" type="line"/>
      <point x="928" y="294" type="line"/>
      <point x="1012" y="294"/>
      <point x="1108" y="353"/>
      <point x="1108" y="428" type="qcurve"/>
      <point x="1108" y="506"/>
      <point x="1008" y="564"/>
      <point x="930" y="564" type="qcurve"/>
      <point x="478" y="564" type="line"/>
      <point x="478" y="888" type="line"/>
      <point x="954" y="888" type="line"/>
      <point x="1114" y="888"/>
      <point x="1366" y="787"/>
      <point x="1512" y="598"/>
      <point x="1512" y="464" type="qcurve"/>
      <point x="1512" y="316"/>
      <point x="1378" y="109"/>
      <point x="1124" y="0"/>
      <point x="944" y="0" type="qcurve"/>
    </contour>
    <contour>
      <point x="56" y="996" type="line"/>
      <point x="56" y="1304" type="line"/>
      <point x="1062" y="1304" type="line"/>
      <point x="1062" y="996" type="line"/>
    </contour>
  </outline>
</glyph>
<glyph name="Gehookcyr" format="2">
  <advance width="1442"/>
  <unicode hex="0494"/>
  <outline>
    <contour>
      <point x="156" y="0" type="line"/>
      <point x="156" y="1400" type="line"/>
      <point x="1116" y="1400" type="line"/>
      <point x="1116" y="1040" type="line"/>
      <point x="560" y="1040" type="line"/>
      <point x="560" y="0" type="line"/>
    </contour>
    <contour>
      <point x="974" y="-334" type="qcurve"/>
      <point x="774" y="-32" type="line"/>
      <point x="845" y="10"/>
      <point x="938" y="122"/>
      <point x="984" y="251"/>
      <point x="984" y="318" type="qcurve"/>
      <point x="984" y="386"/>
      <point x="914" y="500"/>
      <point x="787" y="568"/>
      <point x="702" y="568" type="qcurve"/>
      <point x="642" y="568"/>
      <point x="546" y="550"/>
      <point x="490" y="532" type="qcurve"/>
      <point x="486" y="856" type="line"/>
      <point x="566" y="880"/>
      <point x="719" y="900"/>
      <point x="792" y="900" type="qcurve"/>
      <point x="986" y="900"/>
      <point x="1254" y="752"/>
      <point x="1392" y="502"/>
      <point x="1392" y="350" type="qcurve"/>
      <point x="1392" y="219"/>
      <point x="1301" y="-40"/>
      <point x="1115" y="-261"/>
    </contour>
  </outline>
</glyph>
<glyph name="gehookcyr" format="2">
  <advance width="1169"/>
  <unicode hex="0495"/>
  <anchor x="494" y="1040" name="top"/>
  <anchor x="348" y="462" name="strokeshort"/>
  <outline>
    <contour>
      <point x="778" y="-262" type="qcurve"/>
      <point x="598" y="8" type="line"/>
      <point x="645" y="32"/>
      <point x="710" y="91"/>
      <point x="744" y="159"/>
      <point x="744" y="196" type="qcurve"/>
      <point x="744" y="259"/>
      <point x="652" y="328"/>
      <point x="568" y="328" type="qcurve"/>
      <point x="535" y="328"/>
      <point x="467" y="321"/>
      <point x="410" y="310" type="qcurve"/>
      <point x="406" y="594" type="line"/>
      <point x="462" y="608"/>
      <point x="579" y="620"/>
      <point x="652" y="620" type="qcurve"/>
      <point x="788" y="620"/>
      <point x="992" y="521"/>
      <point x="1106" y="344"/>
      <point x="1106" y="226" type="qcurve"/>
      <point x="1106" y="121"/>
      <point x="1029" y="-62"/>
      <point x="883" y="-210"/>
    </contour>
    <contour>
      <point x="128" y="0" type="line"/>
      <point x="128" y="1040" type="line"/>
      <point x="862" y="1040" type="line"/>
      <point x="862" y="728" type="line"/>
      <point x="528" y="728" type="line"/>
      <point x="528" y="0" type="line"/>
    </contour>
  </outline>
</glyph>
<glyph name="chetailcyr" format="2">
  <advance width="1412"/>
  <unicode hex="04B7"/>
  <anchor x="570" y="1040" name="top"/>
  <outline>
    <contour>
      <point x="1024" y="-300" type="line"/>
      <point x="1024" y="0" type="line"/>
      <point x="944" y="0" type="line"/>
      <point x="944" y="312" type="line"/>
      <point x="1388" y="312" type="line"/>
      <point x="1388" y="-300" type="line"/>
    </contour>
    <contour>
      <point x="704" y="0" type="line"/>
      <point x="704" y="336" type="line"/>
      <point x="641" y="320"/>
      <point x="533" y="302"/>
      <point x="480" y="302" type="qcurve"/>
      <point x="354" y="302"/>
      <point x="154" y="388"/>
      <point x="38" y="576"/>
      <point x="38" y="730" type="qcurve"/>
      <point x="38" y="1040" type="line"/>
      <point x="438" y="1040" type="line"/>
      <point x="438" y="782" type="line"/>
      <point x="438" y="706"/>
      <point x="498" y="626"/>
      <point x="570" y="626" type="qcurve"/>
      <point x="615" y="626"/>
      <point x="676" y="634"/>
      <point x="704" y="638" type="qcurve"/>
      <point x="704" y="1040" type="line"/>
      <point x="1104" y="1040" type="line"/>
      <point x="1104" y="0" type="line"/>
    </contour>
  </outline>
</glyph>
<glyph name="Shhacyr" format="2">
  <advance width="1472"/>
  <unicode hex="04BA"/>
  <outline>
    <contour>
      <point x="156" y="0" type="line"/>
      <point x="156" y="1400" type="line"/>
      <point x="560" y="1400" type="line"/>
      <point x="560" y="912" type="line"/>
      <point x="638" y="935"/>
      <point x="782" y="960"/>
      <point x="860" y="960" type="qcurve"/>
      <point x="1020" y="960"/>
      <point x="1261" y="849"/>
      <point x="1396" y="608"/>
      <point x="1396" y="412" type="qcurve"/>
      <point x="1396" y="0" type="line"/>
      <point x="992" y="0" type="line"/>
      <point x="992" y="358" type="line"/>
      <point x="992" y="496"/>
      <point x="881" y="608"/>
      <point x="776" y="608" type="qcurve"/>
      <point x="712" y="608"/>
      <point x="610" y="593"/>
      <point x="560" y="581" type="qcurve"/>
      <point x="560" y="0" type="line"/>
    </contour>
  </outline>
</glyph>
<glyph name="Chekhakascyr" format="2">
  <advance width="1472"/>
  <unicode hex="04CB"/>
  <anchor x="696" y="1400" name="top"/>
  <outline>
    <contour>
      <point x="684" y="-350" type="line"/>
      <point x="684" y="368" type="line"/>
      <point x="1168" y="368" type="line"/>
      <point x="1168" y="0" type="line"/>
      <point x="1068" y="0" type="line"/>
      <point x="1068" y="-350" type="line"/>
    </contour>
    <contour>
      <point x="912" y="0" type="line"/>
      <point x="912" y="508" type="line"/>
      <point x="834" y="486"/>
      <point x="690" y="460"/>
      <point x="612" y="460" type="qcurve"/>
      <point x="452" y="460"/>
      <point x="211" y="571"/>
      <point x="76" y="812"/>
      <point x="76" y="1008" type="qcurve"/>
      <point x="76" y="1400" type="line"/>
      <point x="480" y="1400" type="line"/>
      <point x="480" y="1062" type="line"/>
      <point x="480" y="924"/>
      <point x="591" y="812"/>
      <point x="696" y="812" type="qcurve"/>
      <point x="761" y="812"/>
      <point x="863" y="826"/>
      <point x="912" y="838" type="qcurve"/>
      <point x="912" y="1400" type="line"/>
      <point x="1316" y="1400" type="line"/>
      <point x="1316" y="0" type="line"/>
    </contour>
  </outline>
</glyph>
<glyph name="Obarcyr" format="2">
  <advance width="1648"/>
  <unicode hex="04E8"/>
  <anchor x="824" y="1400" name="top"/>
  <anchor x="1228" y="1400" name="horn"/>
  <anchor x="824" y="0" name="bottom"/>
  <outline>
    <contour>
      <point x="354" y="562" type="line"/>
      <point x="354" y="864" type="line"/>
      <point x="1316" y="864" type="line"/>
      <point x="1316" y="562" type="line"/>
    </contour>
    <contour>
      <point x="824" y="-30" type="qcurve"/>
      <point x="660" y="-30"/>
      <point x="384" y="81"/>
      <point x="181" y="279"/>
      <point x="70" y="545"/>
      <point x="70" y="700" type="qcurve"/>
      <point x="70" y="856"/>
      <point x="181" y="1122"/>
      <point x="384" y="1320"/>
      <point x="660" y="1430"/>
      <point x="824" y="1430" type="qcurve"/>
      <point x="988" y="1430"/>
      <point x="1263" y="1318"/>
      <point x="1466" y="1118"/>
      <point x="1578" y="853"/>
      <point x="1578" y="700" type="qcurve"/>
      <point x="1578" y="545"/>
      <point x="1466" y="279"/>
      <point x="1263" y="81"/>
      <point x="988" y="-30"/>
    </contour>
    <contour>
      <point x="824" y="348" type="qcurve"/>
      <point x="897" y="348"/>
      <point x="1018" y="397"/>
      <point x="1106" y="489"/>
      <point x="1154" y="619"/>
      <point x="1154" y="700" type="qcurve"/>
      <point x="1154" y="808"/>
      <point x="1070" y="966"/>
      <point x="921" y="1052"/>
      <point x="824" y="1052" type="qcurve"/>
      <point x="751" y="1052"/>
      <point x="630" y="1003"/>
      <point x="542" y="911"/>
      <point x="494" y="781"/>
      <point x="494" y="700" type="qcurve"/>
      <point x="494" y="592"/>
      <point x="578" y="434"/>
      <point x="727" y="348"/>
    </contour>
  </outline>
</glyph>
<glyph name="obarcyr" format="2">
  <advance width="1276"/>
  <unicode hex="04E9"/>
  <outline>
    <contour>
      <point x="350" y="404" type="line"/>
      <point x="350" y="650" type="line"/>
      <point x="930" y="650" type="line"/>
      <point x="930" y="404" type="line"/>
    </contour>
    <contour>
      <point x="638" y="-30" type="qcurve"/>
      <point x="464" y="-30"/>
      <point x="199" y="120"/>
      <point x="50" y="370"/>
      <point x="50" y="520" type="qcurve"/>
      <point x="50" y="628"/>
      <point x="135" y="826"/>
      <point x="292" y="980"/>
      <point x="508" y="1070"/>
      <point x="638" y="1070" type="qcurve"/>
      <point x="812" y="1070"/>
      <point x="1077" y="920"/>
      <point x="1226" y="670"/>
      <point x="1226" y="520" type="qcurve"/>
      <point x="1226" y="412"/>
      <point x="1141" y="214"/>
      <point x="984" y="60"/>
      <point x="769" y="-30"/>
    </contour>
    <contour>
      <point x="638" y="268" type="qcurve"/>
      <point x="706" y="268"/>
      <point x="816" y="329"/>
      <point x="880" y="442"/>
      <point x="880" y="520" type="qcurve"/>
      <point x="880" y="598"/>
      <point x="817" y="711"/>
      <point x="707" y="772"/>
      <point x="638" y="772" type="qcurve"/>
      <point x="569" y="772"/>
      <point x="460" y="711"/>
      <point x="396" y="598"/>
      <point x="396" y="520" type="qcurve"/>
      <point x="396" y="442"/>
      <point x="460" y="329"/>
      <point x="570" y="268"/>
    </contour>
  </outline>
</glyph>
<glyph name="quotedblleft" format="2">
  <advance width="1148"/>
  <unicode hex="201C"/>
  <outline>
    <contour>
      <point x="455" y="1400" type="qcurve"/>
      <point x="565" y="1242" type="line"/>
      <point x="469" y="1204"/>
      <point x="318" y="1081"/>
      <point x="280" y="1018" type="qcurve"/>
      <point x="349" y="1022"/>
      <point x="464" y="973"/>
      <point x="533" y="878"/>
      <point x="533" y="813" type="qcurve" smooth="yes"/>
      <point x="533" y="711"/>
      <point x="405" y="588"/>
      <point x="305" y="588" type="qcurve" smooth="yes"/>
      <point x="192" y="588"/>
      <point x="49" y="739"/>
      <point x="49" y="864" type="qcurve" smooth="yes"/>
      <point x="49" y="962"/>
      <point x="137" y="1148"/>
      <point x="317" y="1321"/>
    </contour>
    <contour>
      <point x="1003" y="1400" type="qcurve"/>
      <point x="1113" y="1242" type="line"/>
      <point x="1017" y="1204"/>
      <point x="866" y="1081"/>
      <point x="828" y="1018" type="qcurve"/>
      <point x="897" y="1022"/>
      <point x="1012" y="973"/>
      <point x="1081" y="878"/>
      <point x="1081" y="813" type="qcurve" smooth="yes"/>
      <point x="1081" y="711"/>
      <point x="953" y="588"/>
      <point x="853" y="588" type="qcurve" smooth="yes"/>
      <point x="740" y="588"/>
      <point x="597" y="739"/>
      <point x="597" y="864" type="qcurve" smooth="yes"/>
      <point x="597" y="962"/>
      <point x="685" y="1148"/>
      <point x="865" y="1321"/>
    </contour>
  </outline>
</glyph>
<glyph name="quotedblright" format="2">
  <advance width="1148"/>
  <unicode hex="201D"/>
  <outline>
    <contour>
      <point x="145" y="608" type="qcurve"/>
      <point x="35" y="766" type="line"/>
      <point x="131" y="804"/>
      <point x="282" y="927"/>
      <point x="320" y="990" type="qcurve"/>
      <point x="251" y="986"/>
      <point x="136" y="1035"/>
      <point x="67" y="1130"/>
      <point x="67" y="1195" type="qcurve" smooth="yes"/>
      <point x="67" y="1297"/>
      <point x="195" y="1420"/>
      <point x="295" y="1420" type="qcurve" smooth="yes"/>
      <point x="408" y="1420"/>
      <point x="551" y="1269"/>
      <point x="551" y="1144" type="qcurve" smooth="yes"/>
      <point x="551" y="1046"/>
      <point x="463" y="860"/>
      <point x="283" y="687"/>
    </contour>
    <contour>
      <point x="693" y="608" type="qcurve"/>
      <point x="583" y="766" type="line"/>
      <point x="679" y="804"/>
      <point x="830" y="927"/>
      <point x="868" y="990" type="qcurve"/>
      <point x="799" y="986"/>
      <point x="684" y="1035"/>
      <point x="615" y="1130"/>
      <point x="615" y="1195" type="qcurve" smooth="yes"/>
      <point x="615" y="1297"/>
      <point x="743" y="1420"/>
      <point x="843" y="1420" type="qcurve" smooth="yes"/>
      <point x="956" y="1420"/>
      <point x="1099" y="1269"/>
      <point x="1099" y="1144" type="qcurve" smooth="yes"/>
      <point x="1099" y="1046"/>
      <point x="1011" y="860"/>
      <point x="831" y="687"/>
    </contour>
  </outline>
</glyph>
<glyph name="quotedblbase" format="2">
  <advance width="1148"/>
  <unicode hex="201E"/>
  <outline>
    <contour>
      <point x="145" y="-396" type="qcurve"/>
      <point x="35" y="-238" type="line"/>
      <point x="131" y="-200"/>
      <point x="282" y="-77"/>
      <point x="320" y="-14" type="qcurve"/>
      <point x="251" y="-18"/>
      <point x="136" y="31"/>
      <point x="67" y="126"/>
      <point x="67" y="191" type="qcurve" smooth="yes"/>
      <point x="67" y="293"/>
      <point x="195" y="416"/>
      <point x="295" y="416" type="qcurve" smooth="yes"/>
      <point x="408" y="416"/>
      <point x="551" y="265"/>
      <point x="551" y="140" type="qcurve" smooth="yes"/>
      <point x="551" y="42"/>
      <point x="463" y="-144"/>
      <point x="283" y="-317"/>
    </contour>
    <contour>
      <point x="693" y="-396" type="qcurve"/>
      <point x="583" y="-238" type="line"/>
      <point x="679" y="-200"/>
      <point x="830" y="-77"/>
      <point x="868" y="-14" type="qcurve"/>
      <point x="799" y="-18"/>
      <point x="684" y="31"/>
      <point x="615" y="126"/>
      <point x="615" y="191" type="qcurve" smooth="yes"/>
      <point x="615" y="293"/>
      <point x="743" y="416"/>
      <point x="843" y="416" type="qcurve" smooth="yes"/>
      <point x="956" y="416"/>
      <point x="1099" y="265"/>
      <point x="1099" y="140" type="qcurve" smooth="yes"/>
      <point x="1099" y="42"/>
      <point x="1011" y="-144"/>
      <point x="831" y="-317"/>
    </contour>
  </outline>
</glyph>
<glyph name="colonmonetary" format="2">
  <advance width="1296"/>
  <unicode hex="20A1"/>
  <anchor x="746" y="1400" name="top"/>
  <anchor x="739" y="0" name="bottom"/>
  <outline>
    <contour>
      <point x="742" y="-30" type="qcurve"/>
      <point x="546" y="-30"/>
      <point x="244" y="146"/>
      <point x="72" y="470"/>
      <point x="72" y="692" type="qcurve"/>
      <point x="72" y="856"/>
      <point x="173" y="1126"/>
      <point x="354" y="1323"/>
      <point x="601" y="1430"/>
      <point x="746" y="1430" type="qcurve"/>
      <point x="913" y="1430"/>
      <point x="1136" y="1336"/>
      <point x="1226" y="1250" type="qcurve"/>
      <point x="1046" y="948" type="line"/>
      <point x="1000" y="1007"/>
      <point x="858" y="1072"/>
      <point x="768" y="1072" type="qcurve"/>
      <point x="692" y="1072"/>
      <point x="576" y="1020"/>
      <point x="497" y="923"/>
      <point x="456" y="786"/>
      <point x="456" y="700" type="qcurve"/>
      <point x="456" y="587"/>
      <point x="528" y="420"/>
      <point x="669" y="328"/>
      <point x="772" y="328" type="qcurve"/>
      <point x="849" y="328"/>
      <point x="1011" y="386"/>
      <point x="1084" y="450" type="qcurve"/>
      <point x="1252" y="140" type="line"/>
      <point x="1161" y="61"/>
      <point x="909" y="-30"/>
    </contour>
    <contour>
      <point x="558" y="-160" type="line"/>
      <point x="858" y="1560" type="line"/>
      <point x="1102" y="1560" type="line"/>
      <point x="798" y="-160" type="line"/>
    </contour>
    <contour>
      <point x="202" y="-160" type="line"/>
      <point x="506" y="1560" type="line"/>
      <point x="746" y="1560" type="line"/>
      <point x="446" y="-160" type="line"/>
    </contour>
  </outline>
</glyph>
<glyph name="franc" format="2">
  <advance width="1296"/>
  <unicode hex="20A3"/>
  <outline>
    <contour>
      <point x="48" y="140" type="line"/>
      <point x="48" y="390" type="line"/>
      <point x="876" y="390" type="line"/>
      <point x="876" y="140" type="line"/>
    </contour>
    <contour>
      <point x="258" y="0" type="line"/>
      <point x="258" y="1400" type="line"/>
      <point x="1202" y="1400" type="line"/>
      <point x="1202" y="1066" type="line"/>
      <point x="626" y="1066" type="line"/>
      <point x="626" y="822" type="line"/>
      <point x="1140" y="822" type="line"/>
      <point x="1140" y="500" type="line"/>
      <point x="626" y="500" type="line"/>
      <point x="626" y="0" type="line"/>
    </contour>
  </outline>
</glyph>
<glyph name="dong" format="2">
  <advance width="1296"/>
  <unicode hex="20AB"/>
  <anchor x="1176" y="1440" name="Anchor_2"/>
  <anchor x="938" y="1224" name="strokeshort"/>
  <outline>
    <contour>
      <point x="78" y="-408" type="line"/>
      <point x="78" y="-92" type="line"/>
      <point x="1178" y="-92" type="line"/>
      <point x="1178" y="-408" type="line"/>
    </contour>
    <contour>
      <point x="498" y="1118" type="line"/>
      <point x="498" y="1330" type="line"/>
      <point x="1298" y="1330" type="line"/>
      <point x="1298" y="1118" type="line"/>
    </contour>
    <contour>
      <point x="504" y="-30" type="qcurve"/>
      <point x="358" y="-30"/>
      <point x="125" y="103"/>
      <point x="-10" y="350"/>
      <point x="-10" y="520" type="qcurve"/>
      <point x="-10" y="638"/>
      <point x="67" y="838"/>
      <point x="207" y="987"/>
      <point x="398" y="1070"/>
      <point x="512" y="1070" type="qcurve"/>
      <point x="617" y="1070"/>
      <point x="798" y="989"/>
      <point x="870" y="900" type="qcurve"/>
      <point x="776" y="808" type="line"/>
      <point x="776" y="1440" type="line"/>
      <point x="1176" y="1440" type="line"/>
      <point x="1176" y="0" type="line"/>
      <point x="836" y="0" type="line"/>
      <point x="836" y="282" type="line"/>
      <point x="890" y="192" type="line"/>
      <point x="853" y="92"/>
      <point x="644" y="-30"/>
    </contour>
    <contour>
      <point x="578" y="310" type="qcurve"/>
      <point x="634" y="310"/>
      <point x="725" y="361"/>
      <point x="778" y="455"/>
      <point x="778" y="520" type="qcurve"/>
      <point x="778" y="585"/>
      <point x="726" y="679"/>
      <point x="635" y="730"/>
      <point x="578" y="730" type="qcurve"/>
      <point x="521" y="730"/>
      <point x="430" y="679"/>
      <point x="378" y="585"/>
      <point x="378" y="520" type="qcurve"/>
      <point x="378" y="455"/>
      <point x="431" y="361"/>
      <point x="522" y="310"/>
    </contour>
  </outline>
</glyph>
<glyph name="Euro" format="2">
  <advance width="1296"/>
  <unicode hex="20AC"/>
  <outline>
    <contour>
      <point x="802" y="-30" type="qcurve"/>
      <point x="647" y="-30"/>
      <point x="394" y="78"/>
      <point x="216" y="280"/>
      <point x="174" y="420" type="qcurve"/>
      <point x="14" y="420" type="line"/>
      <point x="14" y="648" type="line"/>
      <point x="144" y="648" type="line"/>
      <point x="143" y="666"/>
      <point x="143" y="742"/>
      <point x="146" y="758" type="qcurve"/>
      <point x="14" y="758" type="line"/>
      <point x="14" y="984" type="line"/>
      <point x="182" y="984" type="line"/>
      <point x="232" y="1127"/>
      <point x="420" y="1326"/>
      <point x="669" y="1430"/>
      <point x="810" y="1430" type="qcurve"/>
      <point x="891" y="1430"/>
      <point x="1053" y="1401"/>
      <point x="1193" y="1345"/>
      <point x="1242" y="1306" type="qcurve"/>
      <point x="1106" y="1022" type="line"/>
      <point x="1027" y="1075"/>
      <point x="888" y="1116"/>
      <point x="808" y="1116" type="qcurve"/>
      <point x="729" y="1116"/>
      <point x="602" y="1055"/>
      <point x="558" y="984" type="qcurve"/>
      <point x="928" y="984" type="line"/>
      <point x="928" y="758" type="line"/>
      <point x="508" y="758" type="line"/>
      <point x="505" y="733"/>
      <point x="505" y="670"/>
      <point x="508" y="646" type="qcurve"/>
      <point x="928" y="646" type="line"/>
      <point x="928" y="420" type="line"/>
      <point x="552" y="420" type="line"/>
      <point x="593" y="347"/>
      <point x="719" y="284"/>
      <point x="812" y="284" type="qcurve"/>
      <point x="901" y="284"/>
      <point x="1054" y="335"/>
      <point x="1144" y="396" type="qcurve"/>
      <point x="1278" y="108" type="line"/>
      <point x="1187" y="42"/>
      <point x="946" y="-30"/>
    </contour>
  </outline>
</glyph>
<glyph name="peso" format="2">
  <advance width="1296"/>
  <unicode hex="20B1"/>
  <outline>
    <contour>
      <point x="174" y="0" type="line"/>
      <point x="174" y="1400" type="line"/>
      <point x="652" y="1400" type="line"/>
      <point x="795" y="1400"/>
      <point x="1030" y="1284"/>
      <point x="1170" y="1049"/>
      <point x="1170" y="872" type="qcurve"/>
      <point x="1170" y="702"/>
      <point x="1046" y="466"/>
      <point x="810" y="344"/>
      <point x="642" y="344" type="qcurve"/>
      <point x="518" y="344" type="line"/>
      <point x="518" y="0" type="line"/>
    </contour>
    <contour>
      <point x="518" y="590" type="line"/>
      <point x="628" y="590" type="line"/>
      <point x="679" y="590"/>
      <point x="770" y="634"/>
      <point x="826" y="753"/>
      <point x="826" y="866" type="qcurve"/>
      <point x="826" y="970"/>
      <point x="774" y="1092"/>
      <point x="685" y="1144"/>
      <point x="630" y="1144" type="qcurve"/>
      <point x="518" y="1144" type="line"/>
    </contour>
    <contour>
      <point x="4" y="904" type="line"/>
      <point x="4" y="1090" type="line"/>
      <point x="1332" y="1090" type="line"/>
      <point x="1332" y="904" type="line"/>
    </contour>
    <contour>
      <point x="4" y="646" type="line"/>
      <point x="4" y="832" type="line"/>
      <point x="1332" y="832" type="line"/>
      <point x="1332" y="646" type="line"/>
    </contour>
  </outline>
</glyph>
<glyph name="turkishlira" format="2">
  <advance width="1296"/>
  <unicode hex="20BA"/>
  <outline>
    <contour>
      <point x="618" y="-30" type="qcurve"/>
      <point x="488" y="-30"/>
      <point x="303" y="-1"/>
      <point x="216" y="30" type="qcurve"/>
      <point x="216" y="1400" type="line"/>
      <point x="620" y="1400" type="line"/>
      <point x="620" y="212" type="line"/>
      <point x="564" y="320" type="line"/>
      <point x="593" y="314"/>
      <point x="651" y="308"/>
      <point x="678" y="308" type="qcurve"/>
      <point x="821" y="308"/>
      <point x="938" y="470"/>
      <point x="924" y="596" type="qcurve"/>
      <point x="1270" y="636" type="line"/>
      <point x="1289" y="414"/>
      <point x="1125" y="118"/>
      <point x="816" y="-30"/>
    </contour>
    <contour>
      <point x="-2" y="308" type="line"/>
      <point x="-2" y="556" type="line"/>
      <point x="390" y="762" type="line"/>
      <point x="390" y="722" type="line"/>
      <point x="1044" y="1064" type="line"/>
      <point x="1044" y="816" type="line"/>
      <point x="390" y="474" type="line"/>
      <point x="390" y="514" type="line"/>
    </contour>
    <contour>
      <point x="-2" y="656" type="line"/>
      <point x="-2" y="904" type="line"/>
      <point x="390" y="1110" type="line"/>
      <point x="390" y="1070" type="line"/>
      <point x="1044" y="1412" type="line"/>
      <point x="1044" y="1164" type="line"/>
      <point x="390" y="822" type="line"/>
      <point x="390" y="862" type="line"/>
    </contour>
  </outline>
</glyph>
<glyph name="ae.ss01" format="2">
  <advance width="1946"/>
  <anchor x="964" y="1040" name="top"/>
  <outline>
    <contour>
      <point x="554" y="-30" type="qcurve"/>
      <point x="411" y="-30"/>
      <point x="183" y="103"/>
      <point x="50" y="350"/>
      <point x="50" y="520" type="qcurve"/>
      <point x="50" y="648"/>
      <point x="126" y="851"/>
      <point x="263" y="994"/>
      <point x="447" y="1070"/>
      <point x="554" y="1070" type="qcurve"/>
      <point x="673" y="1070"/>
      <point x="860" y="978"/>
      <point x="906" y="898" type="qcurve"/>
      <point x="838" y="798" type="line"/>
      <point x="838" y="1040" type="line"/>
      <point x="1068" y="1040" type="line"/>
      <point x="1068" y="798" type="line"/>
      <point x="968" y="900" type="line"/>
      <point x="1057" y="983"/>
      <point x="1264" y="1070"/>
      <point x="1376" y="1070" type="qcurve"/>
      <point x="1556" y="1070"/>
      <point x="1810" y="895"/>
      <point x="1919" y="595"/>
      <point x="1882" y="408" type="qcurve"/>
      <point x="1140" y="408" type="line"/>
      <point x="1144" y="367"/>
      <point x="1205" y="305"/>
      <point x="1305" y="270"/>
      <point x="1368" y="270" type="qcurve"/>
      <point x="1460" y="270"/>
      <point x="1623" y="314"/>
      <point x="1708" y="362" type="qcurve"/>
      <point x="1822" y="98" type="line"/>
      <point x="1779" y="63"/>
      <point x="1632" y="5"/>
      <point x="1462" y="-30"/>
      <point x="1386" y="-30" type="qcurve"/>
      <point x="1250" y="-30"/>
      <point x="1059" y="55"/>
      <point x="988" y="140" type="qcurve"/>
      <point x="1068" y="242" type="line"/>
      <point x="1068" y="0" type="line"/>
      <point x="838" y="0" type="line"/>
      <point x="838" y="242" type="line"/>
      <point x="906" y="142" type="line"/>
      <point x="860" y="63"/>
      <point x="673" y="-30"/>
    </contour>
    <contour>
      <point x="628" y="310" type="qcurve"/>
      <point x="681" y="310"/>
      <point x="768" y="361"/>
      <point x="820" y="455"/>
      <point x="820" y="520" type="qcurve"/>
      <point x="820" y="585"/>
      <point x="768" y="679"/>
      <point x="681" y="730"/>
      <point x="628" y="730" type="qcurve"/>
      <point x="575" y="730"/>
      <point x="488" y="679"/>
      <point x="436" y="585"/>
      <point x="436" y="520" type="qcurve"/>
      <point x="436" y="455"/>
      <point x="488" y="361"/>
      <point x="575" y="310"/>
    </contour>
    <contour>
      <point x="1166" y="668" type="qcurve"/>
      <point x="1518" y="668" type="line"/>
      <point x="1518" y="722"/>
      <point x="1424" y="790"/>
      <point x="1352" y="790" type="qcurve"/>
      <point x="1273" y="790"/>
      <point x="1169" y="722"/>
    </contour>
  </outline>
</glyph>
<glyph name="dieresiscomb.case" format="2">
  <anchor x="-832" y="1400" name="top"/>
  <anchor x="-832" y="1834" name="top.1"/>
  <outline>
    <contour>
      <point x="-1116" y="1510" type="qcurve"/>
      <point x="-1200" y="1510"/>
      <point x="-1336" y="1621"/>
      <point x="-1336" y="1718" type="qcurve"/>
      <point x="-1336" y="1782"/>
      <point x="-1273" y="1875"/>
      <point x="-1173" y="1926"/>
      <point x="-1116" y="1926" type="qcurve"/>
      <point x="-1032" y="1926"/>
      <point x="-898" y="1814"/>
      <point x="-898" y="1718" type="qcurve"/>
      <point x="-898" y="1653"/>
      <point x="-961" y="1560"/>
      <point x="-1061" y="1510"/>
    </contour>
    <contour>
      <point x="-548" y="1510" type="qcurve"/>
      <point x="-632" y="1510"/>
      <point x="-768" y="1621"/>
      <point x="-768" y="1718" type="qcurve"/>
      <point x="-768" y="1782"/>
      <point x="-705" y="1875"/>
      <point x="-605" y="1926"/>
      <point x="-548" y="1926" type="qcurve"/>
      <point x="-464" y="1926"/>
      <point x="-330" y="1814"/>
      <point x="-330" y="1718" type="qcurve"/>
      <point x="-330" y="1653"/>
      <point x="-393" y="1560"/>
      <point x="-493" y="1510"/>
    </contour>
  </outline>
</glyph>
<glyph name="dieresiscomb.narrow" format="2">
  <anchor x="-638" y="1040" name="top"/>
  <anchor x="-638" y="1484" name="top.1"/>
  <outline>
    <contour>
      <point x="-870" y="1170" type="qcurve"/>
      <point x="-954" y="1170"/>
      <point x="-1064" y="1280"/>
      <point x="-1064" y="1374" type="qcurve"/>
      <point x="-1064" y="1469"/>
      <point x="-954" y="1578"/>
      <point x="-870" y="1578" type="qcurve"/>
      <point x="-789" y="1578"/>
      <point x="-678" y="1469"/>
      <point x="-678" y="1374" type="qcurve"/>
      <point x="-678" y="1280"/>
      <point x="-789" y="1170"/>
    </contour>
    <contour>
      <point x="-406" y="1170" type="qcurve"/>
      <point x="-487" y="1170"/>
      <point x="-598" y="1280"/>
      <point x="-598" y="1374" type="qcurve"/>
      <point x="-598" y="1469"/>
      <point x="-487" y="1578"/>
      <point x="-406" y="1578" type="qcurve"/>
      <point x="-322" y="1578"/>
      <point x="-212" y="1469"/>
      <point x="-212" y="1374" type="qcurve"/>
      <point x="-212" y="1280"/>
      <point x="-322" y="1170"/>
    </contour>
  </outline>
</glyph>
<glyph name="dotaccentcomb.case" format="2">
  <anchor x="-834" y="1400" name="top"/>
  <anchor x="-834" y="1834" name="top.1"/>
  <outline>
    <contour>
      <point x="-834" y="1514" type="qcurve"/>
      <point x="-930" y="1514"/>
      <point x="-1074" y="1628"/>
      <point x="-1074" y="1730" type="qcurve"/>
      <point x="-1074" y="1832"/>
      <point x="-931" y="1948"/>
      <point x="-834" y="1948" type="qcurve"/>
      <point x="-736" y="1948"/>
      <point x="-594" y="1832"/>
      <point x="-594" y="1730" type="qcurve"/>
      <point x="-594" y="1630"/>
      <point x="-737" y="1514"/>
    </contour>
  </outline>
</glyph>
<glyph name="dotlessj.calt" format="2">
  <advance width="656"/>
  <anchor x="328" y="1040" name="top"/>
  <outline>
    <contour>
      <point x="156" y="-450" type="qcurve"/>
      <point x="89" y="-450"/>
      <point x="-8" y="-436"/>
      <point x="-54" y="-418" type="qcurve"/>
      <point x="-18" y="-112" type="line"/>
      <point x="17" y="-126"/>
      <point x="58" y="-126" type="qcurve"/>
      <point x="94" y="-126"/>
      <point x="128" y="-91"/>
      <point x="128" y="-54" type="qcurve"/>
      <point x="128" y="1040" type="line"/>
      <point x="528" y="1040" type="line"/>
      <point x="528" y="-86" type="line"/>
      <point x="528" y="-266"/>
      <point x="321" y="-450"/>
    </contour>
  </outline>
</glyph>
<glyph name="g.ss01" format="2">
  <advance width="1339"/>
  <anchor x="623" y="1040" name="top"/>
  <outline>
    <contour>
      <point x="593" y="-450" type="qcurve"/>
      <point x="475" y="-450"/>
      <point x="274" y="-408"/>
      <point x="193" y="-360" type="qcurve"/>
      <point x="271" y="-50" type="line"/>
      <point x="337" y="-83"/>
      <point x="480" y="-114"/>
      <point x="561" y="-114" type="qcurve"/>
      <point x="705" y="-114"/>
      <point x="853" y="-4"/>
      <point x="853" y="104" type="qcurve"/>
      <point x="853" y="334" type="line"/>
      <point x="903" y="248" type="line"/>
      <point x="872" y="145"/>
      <point x="676" y="30"/>
      <point x="535" y="30" type="qcurve"/>
      <point x="388" y="30"/>
      <point x="168" y="160"/>
      <point x="45" y="394"/>
      <point x="45" y="550" type="qcurve"/>
      <point x="45" y="667"/>
      <point x="115" y="858"/>
      <point x="245" y="996"/>
      <point x="425" y="1070"/>
      <point x="535" y="1070" type="qcurve"/>
      <point x="676" y="1070"/>
      <point x="872" y="956"/>
      <point x="903" y="852" type="qcurve"/>
      <point x="853" y="766" type="line"/>
      <point x="853" y="1042" type="line"/>
      <point x="1211" y="1042" type="line"/>
      <point x="1211" y="164" type="line"/>
      <point x="1211" y="-133"/>
      <point x="892" y="-450"/>
    </contour>
    <contour>
      <point x="623" y="360" type="qcurve"/>
      <point x="679" y="360"/>
      <point x="766" y="408"/>
      <point x="815" y="494"/>
      <point x="815" y="550" type="qcurve"/>
      <point x="815" y="606"/>
      <point x="766" y="692"/>
      <point x="679" y="740"/>
      <point x="623" y="740" type="qcurve"/>
      <point x="567" y="740"/>
      <point x="480" y="692"/>
      <point x="431" y="606"/>
      <point x="431" y="550" type="qcurve"/>
      <point x="431" y="494"/>
      <point x="480" y="408"/>
      <point x="567" y="360"/>
    </contour>
  </outline>
</glyph>
<glyph name="gravecomb.narrow" format="2">
  <anchor x="-638" y="1040" name="top"/>
  <outline>
    <contour>
      <point x="-808" y="1170" type="line"/>
      <point x="-1014" y="1544" type="line"/>
      <point x="-614" y="1544" type="line"/>
      <point x="-442" y="1170" type="line"/>
    </contour>
  </outline>
</glyph>
<glyph name="hardcyr.loclBGR" format="2">
  <advance width="1368"/>
  <outline>
    <contour>
      <point x="816" y="-30" type="qcurve"/>
      <point x="664" y="-30"/>
      <point x="432" y="70"/>
      <point x="302" y="261"/>
      <point x="302" y="396" type="qcurve"/>
      <point x="302" y="1040" type="line"/>
      <point x="702" y="1040" type="line"/>
      <point x="702" y="572" type="line"/>
      <point x="626" y="732" type="line"/>
      <point x="677" y="750"/>
      <point x="806" y="766"/>
      <point x="876" y="766" type="qcurve"/>
      <point x="1003" y="766"/>
      <point x="1203" y="673"/>
      <point x="1318" y="503"/>
      <point x="1318" y="388" type="qcurve"/>
      <point x="1318" y="276"/>
      <point x="1189" y="86"/>
      <point x="962" y="-30"/>
    </contour>
    <contour>
      <point x="816" y="258" type="qcurve"/>
      <point x="853" y="258"/>
      <point x="918" y="286"/>
      <point x="958" y="335"/>
      <point x="958" y="368" type="qcurve"/>
      <point x="958" y="419"/>
      <point x="870" y="476"/>
      <point x="816" y="476" type="qcurve"/>
      <point x="778" y="476"/>
      <point x="713" y="450"/>
      <point x="674" y="402"/>
      <point x="674" y="368" type="qcurve"/>
      <point x="674" y="319"/>
      <point x="759" y="258"/>
    </contour>
    <contour>
      <point x="36" y="728" type="line"/>
      <point x="36" y="1040" type="line"/>
      <point x="702" y="1040" type="line"/>
      <point x="322" y="728" type="line"/>
    </contour>
  </outline>
</glyph>
<glyph name="hookabovecomb.case" format="2">
  <anchor x="-824" y="1400" name="top"/>
  <outline>
    <contour>
      <point x="-954" y="1508" type="line"/>
      <point x="-993" y="1568"/>
      <point x="-962" y="1650"/>
      <point x="-898" y="1668" type="qcurve"/>
      <point x="-865" y="1677"/>
      <point x="-836" y="1691"/>
      <point x="-836" y="1704" type="qcurve"/>
      <point x="-836" y="1715"/>
      <point x="-877" y="1726"/>
      <point x="-906" y="1726" type="qcurve"/>
      <point x="-952" y="1726"/>
      <point x="-1024" y="1708"/>
      <point x="-1060" y="1690" type="qcurve"/>
      <point x="-1114" y="1878" type="line"/>
      <point x="-1060" y="1907"/>
      <point x="-900" y="1940"/>
      <point x="-824" y="1940" type="qcurve"/>
      <point x="-730" y="1940"/>
      <point x="-593" y="1897"/>
      <point x="-518" y="1816"/>
      <point x="-518" y="1760" type="qcurve"/>
      <point x="-518" y="1706"/>
      <point x="-570" y="1631"/>
      <point x="-642" y="1596" type="qcurve"/>
      <point x="-691" y="1572"/>
      <point x="-720" y="1534"/>
      <point x="-702" y="1508" type="qcurve"/>
    </contour>
  </outline>
</glyph>
<glyph name="horncomb.alt_case" format="2">
  <anchor x="-389" y="1400" name="horn"/>
  <outline>
    <contour>
      <point x="-287" y="1036" type="qcurve"/>
      <point x="-350" y="1036"/>
      <point x="-481" y="1070"/>
      <point x="-549" y="1092" type="qcurve"/>
      <point x="-549" y="1324" type="line"/>
      <point x="-490" y="1302"/>
      <point x="-396" y="1268"/>
      <point x="-359" y="1268" type="qcurve"/>
      <point x="-314" y="1268"/>
      <point x="-263" y="1320"/>
      <point x="-263" y="1362" type="qcurve"/>
      <point x="-263" y="1397"/>
      <point x="-298" y="1483"/>
      <point x="-339" y="1532" type="qcurve"/>
      <point x="-111" y="1660" type="line"/>
      <point x="-37" y="1588"/>
      <point x="35" y="1414"/>
      <point x="35" y="1336" type="qcurve"/>
      <point x="35" y="1251"/>
      <point x="-46" y="1115"/>
      <point x="-191" y="1036"/>
    </contour>
  </outline>
</glyph>
<glyph name="horncomb.case" format="2">
  <anchor x="-430" y="1400" name="horn"/>
  <outline>
    <contour>
      <point x="-238" y="1076" type="qcurve"/>
      <point x="-310" y="1076"/>
      <point x="-458" y="1117"/>
      <point x="-609" y="1171"/>
      <point x="-760" y="1212"/>
      <point x="-834" y="1212" type="qcurve"/>
      <point x="-836" y="1430" type="line"/>
      <point x="-738" y="1430"/>
      <point x="-578" y="1393"/>
      <point x="-451" y="1345"/>
      <point x="-350" y="1308"/>
      <point x="-310" y="1308" type="qcurve"/>
      <point x="-265" y="1308"/>
      <point x="-214" y="1349"/>
      <point x="-214" y="1382" type="qcurve"/>
      <point x="-214" y="1412"/>
      <point x="-249" y="1489"/>
      <point x="-290" y="1532" type="qcurve"/>
      <point x="-62" y="1660" type="line"/>
      <point x="12" y="1593"/>
      <point x="84" y="1430"/>
      <point x="84" y="1356" type="qcurve"/>
      <point x="84" y="1277"/>
      <point x="3" y="1150"/>
      <point x="-142" y="1076"/>
    </contour>
  </outline>
</glyph>
<glyph name="ordfeminine.ss01" format="2">
  <advance width="936"/>
  <anchor x="446" y="1398" name="top"/>
  <anchor x="446" y="722" name="bottom"/>
  <outline>
    <contour>
      <point x="392" y="702" type="qcurve"/>
      <point x="296" y="702"/>
      <point x="143" y="789"/>
      <point x="54" y="950"/>
      <point x="54" y="1060" type="qcurve"/>
      <point x="54" y="1170"/>
      <point x="143" y="1331"/>
      <point x="296" y="1418"/>
      <point x="392" y="1418" type="qcurve"/>
      <point x="484" y="1418"/>
      <point x="621" y="1338"/>
      <point x="646" y="1270" type="qcurve"/>
      <point x="610" y="1214" type="line"/>
      <point x="610" y="1398" type="line"/>
      <point x="830" y="1398" type="line"/>
      <point x="830" y="722" type="line"/>
      <point x="610" y="722" type="line"/>
      <point x="610" y="906" type="line"/>
      <point x="646" y="850" type="line"/>
      <point x="621" y="783"/>
      <point x="484" y="702"/>
    </contour>
    <contour>
      <point x="440" y="924" type="qcurve"/>
      <point x="496" y="924"/>
      <point x="574" y="997"/>
      <point x="574" y="1060" type="qcurve"/>
      <point x="574" y="1123"/>
      <point x="496" y="1196"/>
      <point x="440" y="1196" type="qcurve"/>
      <point x="385" y="1196"/>
      <point x="306" y="1123"/>
      <point x="306" y="1060" type="qcurve"/>
      <point x="306" y="997"/>
      <point x="385" y="924"/>
    </contour>
  </outline>
</glyph>
<glyph name="periodcentered.loclCAT.case" format="2">
  <outline>
    <contour>
      <point x="-220" y="572" type="qcurve"/>
      <point x="-314" y="572"/>
      <point x="-454" y="691"/>
      <point x="-454" y="794" type="qcurve"/>
      <point x="-454" y="864"/>
      <point x="-389" y="964"/>
      <point x="-283" y="1018"/>
      <point x="-220" y="1018" type="qcurve"/>
      <point x="-125" y="1018"/>
      <point x="14" y="899"/>
      <point x="14" y="794" type="qcurve"/>
      <point x="14" y="725"/>
      <point x="-50" y="626"/>
      <point x="-157" y="572"/>
    </contour>
  </outline>
</glyph>
<glyph name="ringcomb.case" format="2">
  <anchor x="-834" y="1400" name="top"/>
  <anchor x="-834" y="2056" name="top.1"/>
  <outline>
    <contour>
      <point x="-834" y="1476" type="qcurve"/>
      <point x="-930" y="1476"/>
      <point x="-1084" y="1558"/>
      <point x="-1174" y="1702"/>
      <point x="-1174" y="1794" type="qcurve"/>
      <point x="-1174" y="1885"/>
      <point x="-1084" y="2029"/>
      <point x="-930" y="2112"/>
      <point x="-834" y="2112" type="qcurve"/>
      <point x="-739" y="2112"/>
      <point x="-585" y="2029"/>
      <point x="-494" y="1885"/>
      <point x="-494" y="1794" type="qcurve"/>
      <point x="-494" y="1702"/>
      <point x="-585" y="1558"/>
      <point x="-739" y="1476"/>
    </contour>
    <contour>
      <point x="-834" y="1686" type="qcurve"/>
      <point x="-784" y="1686"/>
      <point x="-726" y="1746"/>
      <point x="-726" y="1794" type="qcurve"/>
      <point x="-726" y="1842"/>
      <point x="-784" y="1902"/>
      <point x="-834" y="1902" type="qcurve"/>
      <point x="-883" y="1902"/>
      <point x="-942" y="1842"/>
      <point x="-942" y="1794" type="qcurve"/>
      <point x="-942" y="1746"/>
      <point x="-883" y="1686"/>
    </contour>
  </outline>
</glyph>
<glyph name="shchacyr.loclBGR" format="2">
  <advance width="2186"/>
  <anchor x="998" y="1040" name="top"/>
  <outline>
    <contour>
      <point x="1798" y="-300" type="line"/>
      <point x="1798" y="0" type="line"/>
      <point x="1718" y="0" type="line"/>
      <point x="1718" y="312" type="line"/>
      <point x="2162" y="312" type="line"/>
      <point x="2162" y="-300" type="line"/>
    </contour>
    <contour>
      <point x="518" y="-30" type="qcurve"/>
      <point x="363" y="-30"/>
      <point x="189" y="86"/>
      <point x="118" y="272"/>
      <point x="118" y="378" type="qcurve"/>
      <point x="118" y="1040" type="line"/>
      <point x="518" y="1040" type="line"/>
      <point x="518" y="492" type="line"/>
      <point x="518" y="419"/>
      <point x="589" y="330"/>
      <point x="662" y="330" type="qcurve"/>
      <point x="701" y="330"/>
      <point x="762" y="364"/>
      <point x="798" y="421"/>
      <point x="798" y="454" type="qcurve"/>
      <point x="798" y="1040" type="line"/>
      <point x="1198" y="1040" type="line"/>
      <point x="1198" y="492" type="line"/>
      <point x="1198" y="419"/>
      <point x="1269" y="330"/>
      <point x="1342" y="330" type="qcurve"/>
      <point x="1381" y="330"/>
      <point x="1442" y="364"/>
      <point x="1478" y="421"/>
      <point x="1478" y="454" type="qcurve"/>
      <point x="1478" y="1040" type="line"/>
      <point x="1878" y="1040" type="line"/>
      <point x="1878" y="0" type="line"/>
      <point x="1478" y="0" type="line"/>
      <point x="1478" y="120" type="line"/>
      <point x="1429" y="48"/>
      <point x="1269" y="-30"/>
      <point x="1186" y="-30" type="qcurve"/>
      <point x="1081" y="-30"/>
      <point x="917" y="67"/>
      <point x="888" y="154" type="qcurve"/>
      <point x="839" y="66"/>
      <point x="638" y="-30"/>
    </contour>
  </outline>
</glyph>
<glyph name="softcyr.loclBGR" format="2">
  <advance width="1174"/>
  <outline>
    <contour>
      <point x="622" y="-30" type="qcurve"/>
      <point x="470" y="-30"/>
      <point x="238" y="70"/>
      <point x="108" y="261"/>
      <point x="108" y="396" type="qcurve"/>
      <point x="108" y="1040" type="line"/>
      <point x="508" y="1040" type="line"/>
      <point x="508" y="572" type="line"/>
      <point x="432" y="732" type="line"/>
      <point x="483" y="750"/>
      <point x="612" y="766"/>
      <point x="682" y="766" type="qcurve"/>
      <point x="809" y="766"/>
      <point x="1009" y="673"/>
      <point x="1124" y="503"/>
      <point x="1124" y="388" type="qcurve"/>
      <point x="1124" y="276"/>
      <point x="995" y="86"/>
      <point x="768" y="-30"/>
    </contour>
    <contour>
      <point x="622" y="258" type="qcurve"/>
      <point x="659" y="258"/>
      <point x="724" y="286"/>
      <point x="764" y="335"/>
      <point x="764" y="368" type="qcurve"/>
      <point x="764" y="419"/>
      <point x="676" y="476"/>
      <point x="622" y="476" type="qcurve"/>
      <point x="584" y="476"/>
      <point x="519" y="450"/>
      <point x="480" y="402"/>
      <point x="480" y="368" type="qcurve"/>
      <point x="480" y="319"/>
      <point x="565" y="258"/>
    </contour>
  </outline>
</glyph>
<glyph name="tsecyr.loclBGR" format="2">
  <advance width="1506"/>
  <anchor x="668" y="1040" name="top"/>
  <anchor x="1198" y="1040" name="horn"/>
  <anchor x="656" y="0" name="bottom"/>
  <outline>
    <contour>
      <point x="1118" y="-300" type="line"/>
      <point x="1118" y="0" type="line"/>
      <point x="1038" y="0" type="line"/>
      <point x="1038" y="312" type="line"/>
      <point x="1482" y="312" type="line"/>
      <point x="1482" y="-300" type="line"/>
    </contour>
    <contour>
      <point x="540" y="-30" type="qcurve"/>
      <point x="396" y="-30"/>
      <point x="209" y="80"/>
      <point x="118" y="285"/>
      <point x="118" y="428" type="qcurve"/>
      <point x="118" y="1040" type="line"/>
      <point x="518" y="1040" type="line"/>
      <point x="518" y="482" type="line"/>
      <point x="518" y="410"/>
      <point x="586" y="330"/>
      <point x="656" y="330" type="qcurve"/>
      <point x="701" y="330"/>
      <point x="765" y="369"/>
      <point x="798" y="437"/>
      <point x="798" y="482" type="qcurve"/>
      <point x="798" y="1040" type="line"/>
      <point x="1198" y="1040" type="line"/>
      <point x="1198" y="0" type="line"/>
      <point x="858" y="0" type="line"/>
      <point x="858" y="102" type="line"/>
      <point x="815" y="56"/>
      <point x="671" y="-30"/>
    </contour>
  </outline>
</glyph>
